<?xml version="1.0" encoding="iso-8859-1"?>
<!-- Generator: Adobe Illustrator 19.0.0, SVG Export Plug-In . SVG Version: 6.00 Build 0)  -->
<svg version="1.1" id="Capa_1" xmlns="http://www.w3.org/2000/svg" xmlns:xlink="http://www.w3.org/1999/xlink" x="0px" y="0px"
	 viewBox="0 0 512 512" style="enable-background:new 0 0 512 512;" xml:space="preserve">
<g>
	<path style="fill:#BFE1FF;" d="M460.264,399.631l-10.607-31.395c11.031-18.668,19.092-38.607,24.182-59.397l26.093-8.697
		c5.939-1.697,10.183-7.638,10.182-14.001v-60.245c0-6.365-4.243-12.304-10.182-14.001l-26.092-8.698
		c-4.455-18.879-11.667-37.122-21.001-54.092c-0.637-1.486-1.697-2.547-2.545-3.395l-84.853-84.853
		c-0.849-0.849-1.91-1.91-3.395-2.545c-15.485-8.273-31.607-15.061-48.79-19.516L298.62,8.307
		c-2.758-4.879-7.849-8.271-13.364-8.271l-60.247-0.001c-5.516,0-10.607,3.395-13.364,8.273l-14.636,30.487
		c-21.002,5.727-40.941,14.212-58.761,25.242l-25.033-12.303c-5.514-2.969-12.515-1.908-17.181,2.758L53.608,96.919
		c-4.666,4.666-5.727,11.667-2.758,17.181l12.303,25.033c-11.03,17.82-19.516,37.759-25.242,58.761L8.423,212.53
		c-4.879,2.758-8.273,7.849-8.273,13.364l0.001,60.246c0,5.516,3.18,10.819,8.271,13.364l29.488,14.637
		c5.302,20.153,13.575,39.033,24.394,57.064c0.425,0.849,1.273,2.122,2.121,2.97l72.549,72.549c0.849,0.849,2.122,1.697,2.971,2.122
		c19.728,12.092,40.518,20.576,62.366,25.879l8.698,27.092c1.697,5.939,7.636,10.182,14.001,10.182h60.245
		c6.364,0.001,12.092-4.031,14.001-10.182l8.697-27.093c20.79-5.09,40.729-13.151,59.184-23.97l31.607,10.394
		c5.305,1.91,11.456,0.425,15.487-3.606l42.426-42.426C460.689,411.087,461.962,405.148,460.264,399.631z M255.133,390.934
		c-15.91,0.212-31.395-2.545-46.458-7.849l-80.398-80.398c-5.514-15.274-8.272-30.759-8.06-46.669
		c-0.212-74.459,60.457-135.128,134.916-134.916c15.91-0.212,31.395,2.545,46.669,8.06L382.2,209.56
		c5.303,15.063,8.061,30.548,7.849,46.458C390.261,330.477,329.591,391.146,255.133,390.934z"/>
	<path style="fill:#BFE1FF;" d="M456.658,415.117l-42.426,42.426c-4.031,4.031-10.182,5.516-15.487,3.606l-31.607-10.394
		c-18.455,10.819-38.395,18.88-59.184,23.97l-8.697,27.093c-1.91,6.151-7.638,10.183-14.001,10.182h-60.245
		c-6.365,0-12.304-4.243-14.001-10.182l-8.698-27.092c-21.848-5.303-42.637-13.788-62.366-25.879
		c-0.849-0.425-2.122-1.273-2.971-2.122l-36.274-36.274l67.67-67.67l40.304,40.304c15.063,5.303,30.548,8.061,46.458,7.849
		c74.459,0.212,135.128-60.457,134.916-134.916c0.212-15.91-2.545-31.395-7.849-46.458l-40.304-40.304l65.973-65.973l42.426,42.426
		c0.848,0.848,1.908,1.908,2.545,3.395c9.334,16.97,16.546,35.213,21.001,54.092l26.092,8.698
		c5.939,1.697,10.182,7.636,10.182,14.001v60.245c0.001,6.364-4.243,12.304-10.182,14.001l-26.093,8.697
		c-5.09,20.79-13.151,40.729-24.182,59.397l10.607,31.395C461.962,405.148,460.689,411.087,456.658,415.117z"/>
</g>
<path style="fill:#FFDA45;" d="M373.315,222.616l-62.155-22.698l-12.94-4.879c-0.001-3.818-9.759-57.276-9.759-57.276
	c49.215-49.215,21.638-21.213,70.003-69.579l80.398,3.181v0.849l4.031,80.398C394.528,200.979,422.53,173.402,373.315,222.616z"/>
<path style="fill:#A3D4FF;" d="M456.658,415.117l-42.426,42.426c-4.031,4.031-10.182,5.516-15.487,3.606l-31.607-10.394
	c-18.455,10.819-38.395,18.88-59.184,23.97l-8.697,27.093c-1.91,6.151-7.638,10.183-14.001,10.182h-60.245
	c-6.365,0-12.304-4.243-14.001-10.182l-8.698-27.092c-21.848-5.303-42.637-13.788-62.366-25.879
	c-0.849-0.425-2.122-1.273-2.971-2.122l-36.274-36.274l67.67-67.67l40.304,40.304c15.063,5.303,30.548,8.061,46.458,7.849
	c74.459,0.212,135.128-60.457,134.916-134.916c0.212-15.91-2.545-31.395-7.849-46.458l-40.304-40.304l65.973-65.973l42.426,42.426
	c0.848,0.848,1.908,1.908,2.545,3.395c9.334,16.97,16.546,35.213,21.001,54.092l26.092,8.698
	c5.939,1.697,10.182,7.636,10.182,14.001v60.245c0.001,6.364-4.243,12.304-10.182,14.001l-26.093,8.697
	c-5.09,20.79-13.151,40.729-24.182,59.397l10.607,31.395C461.962,405.148,460.689,411.087,456.658,415.117z"/>
<polygon style="fill:#65B1FC;" points="373.315,222.616 170.305,425.627 116.424,453.628 64.876,447.477 64.663,446.415 
	57.45,394.655 85.027,341.199 288.462,137.764 "/>
<path style="fill:#FFBC36;" d="M373.315,222.616l-62.155-22.698L438.863,72.215l4.031,80.398
	C394.528,200.979,422.53,173.402,373.315,222.616z"/>
<polygon style="fill:#1689FC;" points="373.315,222.616 170.305,425.627 116.424,453.628 64.876,447.477 64.663,446.415 
	330.889,180.19 "/>
<path style="fill:#FEC478;" d="M116.424,453.628c-36.275,18.454-19.729,9.97-79.975,40.941c-6.575,2.758-12.726,0.848-16.757-3.182
	c-4.031-4.031-5.94-10.182-3.182-16.757c31.396-60.671,22.698-43.911,40.941-79.975c14.426,2.97,27.577,9.759,38.396,20.577
	S113.453,439.627,116.424,453.628z"/>
<path style="fill:#FEB756;" d="M95.846,415.233c10.819,10.819,17.607,24.394,20.577,38.396
	c-36.275,18.454-19.729,9.97-79.975,40.941c-6.575,2.758-12.726,0.848-16.757-3.182L95.846,415.233z"/>
<path style="fill:#2864F0;" d="M492.321,103.186l-49.427,49.427l-84.428-84.428l49.427-49.427
	c24.634-25.104,60.006-24.846,84.64-0.212C518.302,44.314,518.342,77.63,492.321,103.186z"/>
<path style="fill:#0053BF;" d="M442.894,152.613l-42.214-42.214l91.854-91.854c25.768,25.768,25.809,59.085-0.212,84.64
	L442.894,152.613z"/>
<g>
</g>
<g>
</g>
<g>
</g>
<g>
</g>
<g>
</g>
<g>
</g>
<g>
</g>
<g>
</g>
<g>
</g>
<g>
</g>
<g>
</g>
<g>
</g>
<g>
</g>
<g>
</g>
<g>
</g>
</svg>
