<?xml version="1.0" encoding="utf-8"?>
<!-- Generator: Adobe Illustrator 24.0.1, SVG Export Plug-In . SVG Version: 6.00 Build 0)  -->
<svg version="1.1" id="Layer_1" xmlns="http://www.w3.org/2000/svg" xmlns:xlink="http://www.w3.org/1999/xlink" x="0px" y="0px"
	 viewBox="0 0 1451.3 1451.3" style="enable-background:new 0 0 1451.3 1451.3;" xml:space="preserve">
<style type="text/css">
	.st0{fill:#E8EAF6;}
	.st1{fill:#C5CAE9;}
	.st2{fill:#B71C1C;}
	.st3{fill:#D84315;}
	.st4{fill:#01579B;}
	.st5{fill:#FF8A65;}
</style>
<polygon class="st0" points="1378.8,1268.6 72.6,1268.6 72.6,683.6 725.7,62.1 1378.8,683.6 "/>
<g>
	<polygon class="st1" points="1269.9,610.5 1088.5,427.7 1088.5,171.8 1269.9,171.8 	"/>
	<rect x="72.6" y="1268.6" class="st1" width="1306.2" height="182.8"/>
</g>
<polygon class="st2" points="725.7,0 0,680 72.6,760.4 725.7,149.9 1378.8,760.4 1451.3,680 "/>
<rect x="508" y="866.4" class="st3" width="435.4" height="584.9"/>
<rect x="616.8" y="464.3" class="st4" width="217.7" height="219.3"/>
<path class="st5" d="M852.7,1140.6c-10.9,0-18.1,7.3-18.1,18.3v73.1c0,11,7.3,18.3,18.1,18.3s18.1-7.3,18.1-18.3v-73.1
	C870.8,1147.9,863.5,1140.6,852.7,1140.6z"/>
</svg>
