<?xml version="1.0" encoding="utf-8"?>
<!-- Generator: Adobe Illustrator 24.0.1, SVG Export Plug-In . SVG Version: 6.00 Build 0)  -->
<svg version="1.1" id="Capa_1" xmlns="http://www.w3.org/2000/svg" xmlns:xlink="http://www.w3.org/1999/xlink" x="0px" y="0px"
	 viewBox="0 0 1357.6 1453.3" style="enable-background:new 0 0 1357.6 1453.3;" xml:space="preserve">
<style type="text/css">
	.st0{fill:#FCFBFA;stroke:#000000;stroke-width:2;stroke-miterlimit:10;}
</style>
<g>
	<g>
		<path class="st0" d="M734.4,357H721c-0.7,0-1.1,0.5-1.5,1.1c4.8,0.8,9.7,1.3,14.9,1.6C736.3,359.8,736.3,357,734.4,357z"/>
		<path class="st0" d="M1350.8,1250.7c-0.5-1.8,0.4-2.5,2-1.5l0.1,0.1c1.6,1,2.5,0.3,2-1.5c-10.1-35.6-29.2-66.1-41-100
			c-0.6-1.8-0.2-2,1-0.5c2.5,3.4,5.1,6.8,7.7,10.1c1.1,1.5,2.3,2.6,2.5,2.4c0.3-0.2-0.3-1.6-1.3-3.2c-14.1-23.6-28.1-47.2-42.2-70.8
			c-1-1.6-1.2-3.3-0.6-3.7s2.1,0.5,3.2,2c3.1,4.3,6.2,8.6,9.3,12.8c1.1,1.5,2.2,2.7,2.5,2.6s0.1-1.4-0.4-3s-0.6-3.1-0.2-3.5
			s1.7,0.4,3.1,1.7c6.3,6.4,12.6,12.9,19.7,20.2c1.3,1.4,1.6,1.1,0.7-0.6c-1.6-2.9-3-5.5-4.4-7.9c-0.9-1.7-1.4-3.5-1.1-3.9
			s1.8-0.1,3.4,0.9c7.8,5.5,15.6,10.3,24,16.1c1.6,1.1,2.3-0.5,1.6-2.1c-0.7-1.5,3.9-4.1,2.1-4.4c-8.5-1.7-15.8-12.9-15.8-12.9
			c-12-19-27.1-36.5-38.8-55.7c-15.9-26.2-27.6-54.5-33-84.9c-0.7-3.8-1-7.6-1.3-11.5c-0.1-1.9-0.6-2.4-0.9-1.1s-1.1,0.9-1.7-0.9
			c-7.6-21.7-14.8-42.5-22-63.3c-0.6-1.8-1-3.3-0.8-3.4s1,1.2,1.9,2.9c3.1,6.1,6.1,12.2,9.2,18.3c0.9,1.7,1.8,2.9,2.2,2.8
			c0.3-0.1,0.3-1.5-0.2-3.1c-0.3-1-0.6-1.9-1-2.8c-18.7-36.8-37.3-73.7-56.5-110.3c-3.8-7.2-9.1-14-15-19.6
			c-17.9-17.1-36.5-33.4-54.6-50.2c-6.4-6-12.2-12.7-18.4-18.9c-3.2-3.2-6.3-6.8-10-9.2c-24.6-16.1-46.6-34.7-64.9-58.1
			c-24.5-31.2-57.8-52.1-91-72.8c-8-5-15.9-10.3-24.4-14.1c-11.4-5-23-10.4-35.1-12.4c-17.3-2.9-35.2-2-52.7-4.4
			c-12.6-1.7-25-5.4-37.1-9.6c-28.8-10-57.2-21-85.9-31c-18.9-6.6-29.4-23.1-43.6-35.3c-0.8-0.7-1.3-1.9-1.7-3.1
			c-0.6-1.8-0.7-3.6-0.2-4c0.4-0.4,2.2-0.1,3.9,0.7c4.6,2.3,9.2,4.6,14.1,7c1.7,0.8,2.2,0.3,1-1.2c-1.2-1.7-2.4-3.2-3.5-4.8
			c-1.1-1.5-1.9-3-1.7-3.4c0.2-0.3,1.7,0,3.4,0.8c7.7,3.5,15.4,7,23.1,10.5c1.7,0.8,3.4,1.1,3.8,0.8c0.4-0.4-0.1-1.9-1.1-3.5
			c-0.9-1.5-1.9-3.1-3.2-5.2c-1-1.6-0.4-2.3,1.4-1.7c12.4,4.9,23.5,9.3,34.4,13.7c1.8,0.7,3.3,1.1,3.4,0.8c0.1-0.2-1.2-1.1-2.8-2
			c-9.4-5-18.8-10-28.1-15.1c-1.7-0.9-2.8-2.1-2.5-2.7c0.3-0.6,2-0.6,3.8,0c3.9,1.3,7.7,2.6,11.6,3.9c1.8,0.6,3.4,0.8,3.6,0.3
			c0.2-0.4-0.8-1.7-2.3-2.9c-1-0.8-1.9-1.6-2.9-2.3c-1.5-1.2-2.5-2.6-2.4-3.1s1.8-0.7,3.6-0.5c2.6,0.4,5.3,0.7,8.2,1.1
			c1.9,0.2,2.2-0.5,0.8-1.7c-0.8-0.7-1.6-1.3-2.5-2.1c-1.5-1.2-1.3-2.9,0.5-3.6c10.8-3.9,20.5,1.9,31.3,3.6c1.9,0.3,2.1-0.5,0.6-1.6
			c-10.2-7.2-19.7-13.8-29.2-20.4c-1.6-1.1-2.7-2.1-2.7-2.3c0.1-0.2,1.6,0.2,3.3,0.9l17.7,7.2c1.7,0.7,3.4,0.9,3.6,0.5
			c0.2-0.4-0.9-1.6-2.5-2.6c-7-4.3-14-8.7-21-13c-1.6-1-2.8-2.1-2.7-2.6c0.1-0.4,1.7-0.4,3.5,0.2c1.7,0.5,3.5,1,5.5,1.6
			c1.8,0.5,2.6-0.4,1.5-2c-7.8-11-21.7-13.1-30.9-21.7c-1.4-1.3-0.9-2,0.9-1.4c1.8,0.6,3.7,1.2,6,2c1.8,0.6,2,0.1,0.5-1
			c-1-0.8-1.9-1.5-2.9-2.2c-1.5-1.1-1.2-2.2,0.7-2.3c2.5-0.2,4.8-0.3,7.5-0.5c1.9-0.1,2-0.7,0.2-1.3c-3.3-1.1-6.1-2.1-8.9-3
			c-1.8-0.6-3.2-1.5-3.1-1.8c0.1-0.4,1.7-0.5,3.5-0.2c5,1,9.9,1.7,14.9,2.3c0.9,0.1,1.9-1,2.9-1.5c1.5-0.8,1.8-3.4,0.8-4.2
			c-0.7-0.5-0.6-2.1,0-3.1c-7.6-1.4-14.8-3.9-21.2-9.8c-1.4-1.3-0.9-2.3,1-2.2c1.7,0.1,3.4,0.2,5.2,0.3c1.9,0.1,2-0.4,0.3-1.2
			c-0.3-0.2-0.7-0.3-1-0.4c-1.7-0.8-1.7-1.9,0.1-2.5c7.1-2.6,14.3-5.2,21.5-7.9c1.8-0.6,3.1-1.5,3-2c-0.1-0.4-1.7-0.9-3.6-0.9
			c-0.5,0-1.1,0-1.7-0.1c-1.9-0.1-2.5-1.4-1.3-2.9c2.3-3,4.4-5.7,6.2-8.1c1.1-1.5,1.2-3.6,0.2-4.8c-0.7-0.9-1.3-1.8-1.1-2.5
			c0.6-2,3-4.1,5.2-4.8c4.1-1.5,8.4-2.4,12.6-4.4c1.7-0.8,1.5-1.7-0.4-1.8c-11.3-0.5-22.5-1.1-33.7-1.6c-1.9-0.1-3.5-0.7-3.5-1.3
			c-0.1-0.6,0.6-1.5,1.5-2.1c0.9-0.5,0.1-1.2-1.7-1.6c-1.9-0.4-3.9-0.8-5.8-1.2c-1.9-0.4-3.4-1.1-3.4-1.6s1.5-1,3.4-1.1
			c4.2-0.3,8.5-0.6,13.4-1c1.9-0.1,1.9-0.5,0-0.8c-8-1.4-15.3-2.7-22.5-3.9c-1.9-0.3-3.4-1.1-3.5-1.7c-0.1-0.6,1.4-1.4,3.2-1.9
			c0.8-0.2,1.5-0.3,2.3-0.5c1.8-0.4,2-1.5,0.4-2.5c-13.3-7.8-26.9-15.7-42.2-24.7c-1.6-1-1.4-1.6,0.4-1.4c11.8,1.5,22.3,4,32-0.6
			c1.7-0.8,1.5-1.9-0.4-2.3c-3.5-0.6-7.3-1.3-11-1.9c-1.9-0.3-3.2-1-2.9-1.4c0.2-0.5-1-1.3-2.8-1.8c-5.6-1.7-11.1-3.5-16.7-5.2
			c-1.8-0.6-3.2-1.6-3.1-2.3c0.1-0.7,1.7-1.5,3.6-1.6c4.2-0.4,8.5-0.8,12.7-1.2c1.9-0.2,3.4-0.6,3.4-0.9c0-0.3-1.6-0.9-3.4-1.2
			c-4.9-0.8-9.8-1.6-14.7-2.3c-1.9-0.3-3.4-1.1-3.3-1.8c0-0.7,1.6-1.5,3.4-1.8c3.1-0.5,6.3-1,9.4-1.5c1.9-0.3,2.6-1.2,1.6-1.9
			c-1-0.8-1.9-2-2-2.8c-0.1-0.8,1.3-1.7,3.1-2.2c13.1-3.3,26.3-6.5,40.2-10c1.8-0.5,1.8-0.7-0.1-0.5c-16.4,1.7-20.7,2.1-22.7,0
			c-1.3-1.3-0.3-3.7,1.5-4.5c3.8-1.8,7.4-3.9,6.6-9.5c-0.3-1.9-2.4-3.2-4.3-3.1c-3.1,0.1-6.6,0.3-10.1,0.7
			c-13.1,1.6-14.3,1.8-19.3-7.8c-0.9-1.7-0.2-3.7,1.5-4.5c5.8-2.7,11.6-5.4,17.3-8.1c1.7-0.8,2.9-1.8,2.7-2.3
			c-0.2-0.5-1.8-0.3-3.5,0.4c-4.2,1.7-8.4,3.5-12.8,4.6c-5.7,1.3-12.3,5.7-17-2.2c-0.3-0.5-1.5-0.5-2.3-0.7
			c-25.5-8.5-51-16.9-76.5-25.5c-4.5-1.5-8.8-3.4-12.9-6.3c-1.5-1.1-1.2-2,0.7-1.9l2,0.1c1.9,0.1,3.6-0.1,3.8-0.4s-1-1.3-2.7-2.2
			c-6.6-3.5-13.2-7-19.8-10.4c-1.7-0.9-3-1.9-2.9-2.2s1.8-0.5,3.6-0.2c0.5,0.1,1.1,0.1,1.6,0.2c1.9,0.2,2-0.3,0.3-1
			c-14.7-6.6-30.6-13.9-46.7-21.1c-1.7-0.8-3-2-2.9-2.6c0.1-0.7,1.8-1.2,3.7-1.1c4,0.2,8.3,0.4,13.5,0.7c1.9,0.1,1.9-0.2,0.1-0.6
			c-3.1-0.7-5.6-1.3-8.2-1.8c-1.9-0.4-2-1.5-0.3-2.3c8.1-4.2,15.4-8,22.4-11.6c1.7-0.9,1.5-1.4-0.3-1c-9.1,1.5-18.3,3-27.5,4.6
			c-1.9,0.3-3.5-0.1-3.7-0.8c-0.2-0.7,0.6-2.1,1.7-2.8c1.1-0.7,0.5-2.2-1.3-2.6c-4.9-1-9.7-3.2-14.5-4.2c0,0,12.4-3.7-5.5-6.2
			c-16.7-2.4-31-8.6-45.2-17.8c-11.5-7.5-25.3-11.8-38.6-16.1c-15.8-5.1-32.2-8.6-48.2-13c-6-1.6-11.7-4.8-17.7-5.4
			c-7.6-0.8-15.3-0.4-22.2-0.3c-1.9,0-4.7-0.8-6.2-2c-1.6-1.3-3.1-2.4-4.7-2.4c-33.3-0.6-66.5,0-98.9,8.6
			c-6.5,1.7-12.4,5.3-18.8,7.4c-2.5,0.8-6.2,1.1-8-0.2c-6.6-4.8-12.7-10.4-18.9-15.8c-2.8-2.5-5.6-5.1-8.3-7.7
			c-1.4-1.3-2.9-2.1-3.5-1.7c-0.6,0.3-1,2-1,3.7c0,1,0.1,2.1,0.3,3.1c1.6,6.1,3.4,12.1,5.2,18.1c3.7,12.5,3.6,12.2-8.8,16.3
			c-5.4,1.7-11.1,3.8-15.2,7.4c-5.6,4.7-11.2,4.5-17.5,4.2c-5.3-0.2-10.7,0.5-16.1,0.6c-17.3,0.2-33.8-3.3-49.3-11.3
			c-0.9-0.5-1.9-0.6-3-0.7c-1.7-0.1-3,1.2-2.9,2.9c0.1,1.1,0.2,2.2,0.8,3c6.1,10.7,13.2,20.8,25.8,25.8c6.8,2.7,13.3,6.6,19.4,10.7
			c10.8,7.1,13.2,15.5,9.7,27.9c-5.4,18.9-11.5,37.7-15,56.9c-1.7,9.3,2,19.5,3.4,29.3c0.6,4.5,2.6,8.9,2.5,13.3
			c-0.6,39.3-6.9,77.7-17.8,115.4c-1.9,6.4-3.2,12.9-4.3,18.4c-0.4,1.9-1.2,4.2-1.5,5.3c-0.2,0.7-0.3,1.4-0.3,2.1
			c0,0.8,0.1,1.5,0.3,2.2c0.3,1.2,1.1,2.7,1.6,3.5c0.5,0.8,1.1,1.9,1.5,2.6c0.2,0.4,0.4,0.8,0.7,1.1c1.9,2.7,4.1,5.1,6.2,7.6
			c1.3,1.4,1.4,3.8,0.3,5.3c-0.9,1.2-1.9,2.4-2.9,3.5c-0.8,0.9-1.3,1.9-1.6,2.9c-0.6,1.8-0.6,3.5-0.7,3.8c-0.1,0.2-0.2,0.4-0.2,0.6
			c0,2,1,5,2.5,5.9c7.3,4.3,14.8,8.2,22.8,12.5c1.7,0.9,1.8,2.5,0.2,3.6c-0.7,0.5-1.4,1-2.1,1.5c-1.5,1.1-1.7,3-0.1,4.1
			c8,5.6,16.5,5.3,25.5,3.8c4.2-0.7,8.7,0,13,0c1.9,0,4.6,0.4,5.6-0.6c6.1-6.2,13.6-6.9,21.7-7.8c11.3-1.3,21.1-15.1,19.5-26.6
			c-2.1-15,2.3-26.3,12.8-37.7c8.8-9.5,13.3-23,20.1-34.4c1.8-3,5.1-5.8,8.4-7.1c5.1-2,9.6-0.1,11,5.7c3.5,14.3,9.3,28.5,9.6,42.9
			c0.5,21.5-2.2,43.2-4.8,64.6c-3,24.1-15,44.4-28.4,64.2c-15.1,22.2-23.8,46.3-19.1,74.1c2.6,15.1,2.9,30.6,3.5,46
			c0.1,2.9-1.9,7.4-4.3,8.7c-43,24.6-80.5,56.6-118.1,88.5c-6.3,5.3-13.5,9.5-19.7,15c-16,14.3-18,32.7-14.3,52.4
			c0.8,4.4,2.1,9.2,4.4,12.9c11.2,17.6,11.7,36.3,6.8,55.8c-7.3,30.5-14.3,61-22.1,91.3c-2.3,8.8-1.2,16.5,3.2,23.7
			c10.2,16.4,16.9,34.2,20.4,53.1c2.9,15.9,11.6,28.8,20.8,41.6c7.1,10,13.4,20.5,20.3,30.6c5.7,8.4,11.4,10.8,20.3,6
			c7.3-3.9,15-9.1,19.4-15.8c12.5-18.8,15.8-40,11.6-62.1c-0.8-4.3-2.6-9.2-5.6-12.2C101.4,979.5,90,968.4,78,958
			c-7.9-6.8-10.6-17.1-6.1-26.4c2.6-5.5,4.3-11.7,5-17.7c0.7-6.8,0.3-13.8,0.2-21.9c0-1.9,1.3-2.6,2.8-1.5
			c11.2,8.2,19.5,17.4,21.4,30c3.5,22.8,17.6,32.9,38.2,39.4c35.7,11.3,71.6,20.3,109.5,19c17.6-0.6,17.7,0.4,16.5-17.4
			c-1.9-25.9-14.7-47-30.3-66.6c-1.7-2.2-5.3-4-8-4c-8.5,0.1-17.1,0.7-25.5,1.9c-2.7,0.4-5.1,3.1-7.4,5.1
			c-4.2,3.7-8.2,7.7-12.6,11.8c-1.4,1.3-3.1,1.3-4-0.1c-0.6-1-1.1-1.7-1.4-2.5c-5.9-14.9-5.9-15.2-21.3-15.2
			c-11.5,0-20.4-5.8-25.7-14.5c-12-19.9-22.7-40.7-33.2-61.5c-1.5-2.9-0.2-8.1,1.6-11.3c3.2-5.6,7.2-11,12-15.4
			c2.8-2.6,7.5-4.1,11.4-4.2c34.7-1.3,69.6-1.3,104.2-3.5c31.5-2.1,62.9-6.3,94.2-10c4-0.5,8.8-2.3,11.3-5.1
			c8.2-9.6,17.5-9.4,27.7-4.6c20.1,9.4,39.9,19.5,60.4,28.1c29.4,12.4,59.4,23.3,88.7,35.6c56.5,23.8,117.1,30.6,176.2,43.8
			c12.5,2.8,25.4,3.7,38.1,5.1c5.8,0.6,9.9,3.1,11.4,8.6c2,7.6,4.8,15.5,4.8,23.2c0.1,28.2,8.3,53.7,22.1,77.9
			c4.8,8.4,9.5,17,12.8,26c7.4,20,3.9,38.7-9.6,55.2c-26.5,32.3-57.5,60-88.9,87.3c-9.7,8.4-19.4,16.8-28.4,25.9
			c-3.1,3.1-5.4,8.3-5.7,12.7c-1.8,25.3-4.4,50.5-12.1,74.9c-5.5,17.5,2,32.8,9.1,48c6,13,12.3,25.8,19.3,40.5
			c0.8,1.7,2.5,1.9,3.8,0.6c7.9-8.6,15.3-16.1,21.9-24.3c13.4-16.7,22.1-36,27.7-56.4c1.7-6.2,0.4-13.6-1.1-20.2
			c-1.8-8.2-5.7-16-7.3-24.3c-0.5-2.9,2.6-8.6,5.3-9.5c10.6-3.4,14.5-12.4,20.6-20.2c11.7-15,25.1-28.6,38.2-42.5
			c14-14.8,30.7-25.9,48.9-35.3c19.4-10.1,38.1-21.7,56.5-33.7c4.6-2.9,7.6-8.2,11.3-13.3c1.1-1.5,3.5-2.1,5.2-1.3
			c14.5,7.2,25.5,19.8,32.9,36.9c14.8,33.9,8.8,65.9-6.7,97.1c-14.1,28.3-29.6,55.9-44.6,83.7c-9.2,17-23.8,28.8-39.2,39.7
			c-4.3,3.1-8.8,6.6-11.7,10.9c-19.9,30.2-35.8,62.7-50.5,95.6c-3.9,8.8-3.2,11.4,6.5,12.6c12.1,1.6,24.4,1.9,36.6,1.4
			c20.8-0.9,40.6-6,57-20c12.4-10.6,19.6-23.5,18.1-40.4c-0.1-0.9,0-1.7-0.2-2.6c-3.3-15.4,0.6-25.8,17.3-30.8
			c12.7-3.8,19.5-15.5,25.1-26.8c16.2-32.7,31.3-65.9,47.9-98.3c13-25.3,27.4-49.9,41.6-74.6c9.4-16.3,19.4-32.3,29.7-47.9
			c10-15.3,7.4-28.9-1.9-43.5c-12.4-19.4-23.4-39.7-35.1-59.5c-10.4-17.6-5.6-35.5,5.3-48.8c27.9-33.7,40.8-74.8,60-112.8
			c1.5-2.9,2.4-6.2,4-9.3c0.8-1.7,1.6-1.4,1.3,0.4c-0.3,2.1-0.6,4.2-0.5,6.3c1.1,26.5,2.8,53.1,3.6,79.6c0.4,12.5-2.2,25.2-0.8,37.6
			c2,18.6,6.3,36.9,9.6,55.4c0.8,4.2,1.6,8.3,3.1,12.4c0.7,1.8,1.2,1.6,1-0.3c-0.2-2.3-0.5-4.7-0.7-7c-0.2-1.9,0-1.9,0.5-0.1
			c7.3,29.9,13.9,59.9,30.3,86.6c1,1.6,1.3,1.4,0.7-0.3c-0.3-0.8-0.5-1.6-0.8-2.4c-0.6-1.8-0.1-2.1,1-0.6
			c9.3,11.5,18.3,22.7,28.4,35.1c1.2,1.5,2.5,1.2,2.9-0.7c0.2-1.1,0.4-2.1,0.6-3c0.4-1.9,2.1-2.7,3.8-1.9c4.4,2,8.7,3.7,12.5,6.1
			c4.3,2.7,8.4,6.1,12.7,9.8c1.4,1.2,2.6,1.2,2.6-0.1s0.6-2.3,1.3-2c0.6,0.2,0.8,0.4,1.2,0.7c20.9,17,39,36.2,53.5,59.3
			c9.5,15.2,21.9,29.3,35.5,41c5.1,4.4,9.3,9.5,15,13.6c1.5,1.1,2.1,0.6,1.1-1.1c-1.4-2.3-2.7-4.7-4.1-7c-1-1.6-1.5-3.1-1.2-3.4
			c0.3-0.2,1.5,0.7,2.8,2.1c3.7,4.2,7.4,8.6,11.6,13.4c1.2,1.5,1.9,1.1,1.6-0.8c0-0.1-0.1-0.2-0.1-0.3c-0.4-1.9,0.6-2.5,2.1-1.4
			c9,6.5,17.7,12.7,27,19.4c1.5,1.1,2.9,0.4,3-1.4c0.2-3.5,0.4-6.4,0.6-9c0.1-1.9,0.8-3.5,1.5-3.6s2.2,1,3.4,2.5
			c0.3,0.3,0.6,0.7,0.8,1c1.2,1.5,2.3,2.6,2.6,2.5c0.3-0.1-0.2-1.6-0.9-3.3c-1.3-3-2.5-6-3.7-9c-0.7-1.7-1-3.3-0.7-3.5
			c0.4-0.2,1.6,0.9,2.7,2.4c1.9,2.6,3.9,5.2,5.8,7.8c1.1,1.5,2.3,2.6,2.5,2.5c0.3-0.2,0.1-1.7-0.4-3.5
			C1354.1,1262.9,1352.5,1257.1,1350.8,1250.7z"/>
	</g>
</g>
</svg>
