<?xml version="1.0" encoding="utf-8"?>
<!-- Generator: Adobe Illustrator 24.0.1, SVG Export Plug-In . SVG Version: 6.00 Build 0)  -->
<svg version="1.1" id="Capa_1" xmlns="http://www.w3.org/2000/svg" xmlns:xlink="http://www.w3.org/1999/xlink" x="0px" y="0px"
	 viewBox="0 0 1451.3 1451.3" style="enable-background:new 0 0 1451.3 1451.3;" xml:space="preserve">
<style type="text/css">
	.st0{fill:#105C6E;}
	.st1{fill:#26879C;}
	.st2{fill:#DE513C;}
	.st3{fill:#FC6249;}
	.st4{fill:#96D1D9;}
	.st5{fill:#F4F2E6;}
</style>
<path class="st0" d="M391.1,288l-94.3-84.9c-21.9-19.7-51-30.5-82-30.5s-60.1,10.8-82,30.5l-68.4,61.6c-45,40.5-45,106.4,0,147
	l94.5,85.1c9.2,8.3,21.4,12.5,33.5,12.5c12.1,0,24.2-4.1,33.4-12.4c18.5-16.6,146.6-132.1,165.1-148.6
	C409.5,331.6,409.5,304.6,391.1,288z"/>
<path class="st1" d="M725.7,8.5c-26.1,0-47.3,19-47.3,42.5v136.1c0,23.5,21.2,42.5,47.3,42.5s47.3-19,47.3-42.5V51
	C773,27.5,751.8,8.5,725.7,8.5z"/>
<path class="st2" d="M842.4,0H608.9c-26.1,0-47.3,19-47.3,42.5S582.8,85,608.9,85h233.5c26.1,0,47.3-19,47.3-42.5S868.5,0,842.4,0z"
	/>
<path class="st3" d="M725.7,0H608.9c-26.1,0-47.3,19-47.3,42.5S582.8,85,608.9,85h116.7V0z"/>
<path class="st2" d="M1238.8,336.2c-137.1-123.4-319.3-191.4-513.2-191.4s-376.1,68-513.2,191.4C75.5,459.6,0,623.6,0,798.1
	s75.5,338.5,212.5,461.9c137.1,123.4,319.3,191.4,513.2,191.4s376.1-68,513.2-191.4c137-123.4,212.5-287.4,212.5-461.9
	S1375.9,459.6,1238.8,336.2z"/>
<path class="st3" d="M725.7,144.9c-193.9,0-376.1,68-513.2,191.4C75.5,459.6,0,623.6,0,798.1s75.5,338.5,212.5,461.9
	c137.1,123.4,319.3,191.4,513.2,191.4V144.9z"/>
<path class="st4" d="M725.7,307.7c-300.4,0-544.8,220-544.8,490.4s244.4,490.4,544.8,490.4s544.8-220,544.8-490.4
	S1026.1,307.7,725.7,307.7z"/>
<path class="st5" d="M725.7,307.7c-300.4,0-544.8,220-544.8,490.4s244.4,490.4,544.8,490.4V307.7z"/>
<g>
	<path class="st0" d="M725.7,413.9c26.1,0,47.3-19,47.3-42.5v-61.8c-15.6-1.2-31.4-1.9-47.3-1.9c-15.9,0-31.7,0.7-47.3,1.9v61.8
		C678.3,394.8,699.5,413.9,725.7,413.9z"/>
	<path class="st0" d="M725.7,1182.3c-26.1,0-47.3,19-47.3,42.5v61.8c15.6,1.2,31.4,1.9,47.3,1.9c15.9,0,31.7-0.7,47.3-1.9v-61.8
		C773,1201.4,751.8,1182.3,725.7,1182.3z"/>
	<path class="st0" d="M1268.4,755.6h-67.8c-26.1,0-47.3,19-47.3,42.5s21.2,42.5,47.3,42.5h67.8c1.3-14,2.1-28.2,2.1-42.5
		C1270.5,783.8,1269.8,769.6,1268.4,755.6z"/>
	<path class="st0" d="M298,798.1c0-23.5-21.2-42.5-47.3-42.5h-67.8c-1.3,14-2.1,28.2-2.1,42.5c0,14.3,0.7,28.5,2.1,42.5h67.8
		C276.8,840.6,298,821.6,298,798.1z"/>
	<path class="st0" d="M842.4,773.6h-66.8v-172c0-23.5-21.2-42.5-47.3-42.5c-26.1,0-47.3,19-47.3,42.5v214.5
		c0,23.5,21.2,42.5,47.3,42.5h114.1c26.1,0,47.3-19,47.3-42.5S868.5,773.6,842.4,773.6z"/>
</g>
</svg>
