<?xml version="1.0" encoding="utf-8"?>
<!-- Generator: Adobe Illustrator 24.0.1, SVG Export Plug-In . SVG Version: 6.00 Build 0)  -->
<svg version="1.1" id="Capa_1" xmlns="http://www.w3.org/2000/svg" xmlns:xlink="http://www.w3.org/1999/xlink" x="0px" y="0px"
	 viewBox="0 0 1451.3 1451.3" style="enable-background:new 0 0 1451.3 1451.3;" xml:space="preserve">
<style type="text/css">
	.st0{fill:#64B5F6;}
	.st1{fill:#42A5F5;}
	.st2{fill:#2196F3;}
	.st3{fill:#1976D2;}
	.st4{fill:#455A64;}
</style>
<path class="st0" d="M296,788.4c-11.8-4.7-25.4-2.1-34.4,6.5l-103.9,99.6L53.9,795c-12.3-11.8-32.3-11.8-44.6-0.1
	C3.3,800.6,0,808.3,0,816.4v604.7c0,16.7,14.1,30.2,31.6,30.2H284c17.4,0,31.6-13.5,31.6-30.2V816.4
	C315.5,804.1,307.8,793.1,296,788.4z"/>
<path class="st1" d="M558.7,553.1c-12.3-11.8-32.3-11.8-44.6,0L387.9,674c-5.9,5.7-9.3,13.4-9.3,21.4v725.7
	c0,16.7,14.1,30.2,31.6,30.2h252.4c17.4,0,31.6-13.5,31.6-30.2V695.4c0-8-3.3-15.7-9.2-21.4L558.7,553.1z"/>
<path class="st2" d="M937.3,432.1c-12.3-11.8-32.3-11.8-44.6,0L766.5,553.1c-5.9,5.7-9.3,13.4-9.3,21.4v846.6
	c0,16.7,14.1,30.2,31.6,30.2h252.4c17.4,0,31.6-13.5,31.6-30.2V574.5c0-8-3.3-15.7-9.2-21.4L937.3,432.1z"/>
<path class="st3" d="M1442.1,371.7l-63.1-60.5c-5.9-5.7-14-8.8-22.3-8.8h-63.1c-8.4,0-16.4,3.2-22.3,8.8L1145,432.1
	c-5.9,5.7-9.2,13.4-9.2,21.4v967.6c0,16.7,14.1,30.2,31.6,30.2h252.4c17.4,0,31.6-13.5,31.6-30.2v-1028
	C1451.4,385,1448,377.3,1442.1,371.7z"/>
<path class="st4" d="M1419.8,0h-189.3c-17.4,0-31.6,13.5-31.6,30.2c0,8.1,3.3,15.8,9.3,21.5l72.4,69.3l-239.3,229.4l-103.9-99.6
	c-12.3-11.8-32.3-11.8-44.6,0L662.6,471.3l-103.9-99.6c-12.3-11.8-32.3-11.8-44.6,0L157.8,713.2L53.9,613.6
	c-12.5-11.6-32.5-11.3-44.6,0.7c-11.8,11.7-11.8,30.3,0,42l126.2,120.9c12.3,11.8,32.3,11.8,44.6,0l356.3-341.4l103.9,99.5
	c12.3,11.8,32.3,11.8,44.6,0L915,314.9l103.9,99.5c12.3,11.8,32.3,11.8,44.6,0l261.7-250.7l72.3,69.3c5.9,5.7,14,8.9,22.3,8.9
	c4.1,0,8.2-0.8,12.1-2.3c11.8-4.7,19.5-15.7,19.5-27.9V30.2C1451.3,13.5,1437.2,0,1419.8,0z"/>
<path d="M284,1451.3H31.6c-17.4,0-31.6-13.5-31.6-30.2V816.4c0-16.7,14.1-30.3,31.5-30.3c8.4,0,16.5,3.2,22.4,8.9l103.9,99.6
	L261.6,795c12.3-11.8,32.3-11.8,44.6-0.1c5.9,5.7,9.3,13.4,9.3,21.4v604.7C315.5,1437.8,301.4,1451.3,284,1451.3z M63.1,1390.9
	h189.3V889.4l-72.3,69.4c-12.3,11.8-32.3,11.8-44.6,0l-72.4-69.4V1390.9z"/>
<path d="M662.6,1451.3H410.2c-17.4,0-31.6-13.5-31.6-30.2V695.4c0-8,3.3-15.7,9.2-21.4L514,553.1c12.3-11.8,32.3-11.8,44.6,0
	L684.8,674c5.9,5.7,9.2,13.4,9.2,21.4v725.7C694.1,1437.8,680,1451.3,662.6,1451.3z M441.7,1390.9H631V707.9l-94.7-90.7l-94.7,90.7
	V1390.9z"/>
<path d="M1041.2,1451.3H788.8c-17.4,0-31.6-13.5-31.6-30.2V574.5c0-8,3.3-15.7,9.2-21.4l126.2-120.9c12.3-11.8,32.3-11.8,44.6,0
	l126.2,120.9c5.9,5.7,9.3,13.4,9.3,21.4v846.6C1072.7,1437.8,1058.6,1451.3,1041.2,1451.3z M820.3,1390.9h189.3V587L915,496.3
	L820.3,587V1390.9z"/>
<path d="M1419.8,1451.3h-252.4c-17.4,0-31.6-13.5-31.6-30.2V453.5c0-8,3.3-15.7,9.2-21.4l126.2-120.9c5.9-5.7,14-8.8,22.3-8.8h63.1
	c8.4,0,16.4,3.2,22.3,8.8l63.1,60.5c5.9,5.7,9.2,13.4,9.2,21.4v1028C1451.3,1437.8,1437.2,1451.3,1419.8,1451.3z M1198.9,1390.9
	h189.3V405.6l-44.6-42.8h-37l-107.7,103.2V1390.9z"/>
<path d="M157.8,786.1c-8.4,0-16.4-3.2-22.3-8.8L9.2,656.4c-12.1-12-11.8-31.2,0.8-42.8c12.2-11.3,31.6-11.3,43.8,0l103.9,99.5
	L514,371.7c12.3-11.8,32.3-11.8,44.6,0l103.9,99.6l230.1-220.5c12.3-11.8,32.3-11.8,44.6,0l103.9,99.5l261.6-250.7
	c12.1-12,32.1-12.3,44.6-0.7c12.5,11.6,12.9,30.7,0.8,42.8c-0.3,0.3-0.5,0.5-0.8,0.7l-284,272.1c-12.3,11.8-32.3,11.8-44.6,0
	L915,314.9L684.9,535.4c-12.3,11.8-32.3,11.8-44.6,0l-103.9-99.6L180.1,777.3C174.2,783,166.1,786.2,157.8,786.1z"/>
<path d="M1419.8,241.9c-8.4,0-16.4-3.2-22.3-8.8L1208.1,51.6c-12.3-11.8-12.4-30.9-0.1-42.8c5.9-5.7,14-8.9,22.4-8.9h189.3
	c17.4,0,31.6,13.5,31.6,30.2v181.4c0,12.2-7.7,23.3-19.5,27.9C1428,241.1,1423.9,241.9,1419.8,241.9z M1306.6,60.5l81.6,78.2V60.5
	H1306.6z"/>
</svg>
