<?xml version="1.0" encoding="utf-8"?>
<!-- Generator: Adobe Illustrator 24.0.1, SVG Export Plug-In . SVG Version: 6.00 Build 0)  -->
<svg version="1.1" id="Layer_1" xmlns="http://www.w3.org/2000/svg" xmlns:xlink="http://www.w3.org/1999/xlink" x="0px" y="0px"
	 viewBox="0 0 1451.3 1451.3" style="enable-background:new 0 0 1451.3 1451.3;" xml:space="preserve">
<style type="text/css">
	.st0{fill:#60D1E0;}
	.st1{fill:#5AC6D4;}
	.st2{fill:#B7E7EB;}
	.st3{fill:#57BFCC;}
	.st4{fill:#FFB531;}
	.st5{fill:#92563A;}
</style>
<g id="Filled_outline">
	<path class="st0" d="M1185.3,24.2c-53.4,0-96.7,43.3-96.8,96.7c0,0,0,0,0,0.1v1209.4c0,53.4-43.3,96.8-96.8,96.8h-774V120.9
		c0-53.4,43.3-96.8,96.8-96.8H1185.3z"/>
	<path class="st1" d="M1185.3,24.2c-53.4,0-96.7,43.3-96.8,96.7c0,0,0,0,0,0.1v1209.4c0,53.4-43.3,96.8-96.8,96.8h-774v-316.5
		C537.8,918,825.4,578,1016.2,24.2H1185.3z"/>
	<path class="st2" d="M991.7,1427.1H120.9c-53.4,0-96.8-43.3-96.8-96.8V1282H895v48.4C895,1383.8,938.3,1427.1,991.7,1427.1z"/>
	<path class="st3" d="M1282,169.3h-193.5v-48.4c0-53.4,43.3-96.8,96.8-96.8c53.4,0,96.8,43.3,96.8,96.8V169.3z"/>
	<path class="st4" d="M744,228.4c22-34.8-18.4-75.2-53.2-53.2c-9.1-40.1-66.2-40.1-75.3,0c-34.8-22-75.2,18.5-53.2,53.2
		c-40.1,9.1-40.1,66.2,0,75.3c-22,34.8,18.4,75.2,53.2,53.2c9.1,40.1,66.2,40.1,75.3,0c34.8,22,75.2-18.4,53.2-53.2
		C784.1,294.7,784.1,237.5,744,228.4z"/>
	<path class="st5" d="M1257.8,314.5c-40.1,0-72.6,32.5-72.6,72.6v774h145.1V387C1330.4,346.9,1297.9,314.5,1257.8,314.5z"/>
	<path class="st4" d="M1185.3,1161.1l72.6,145.1l72.6-145.1H1185.3z"/>
	<path d="M1282,193.5c13.4,0,24.2-10.8,24.2-24.2v-48.4C1306.1,54.2,1252,0.1,1185.3,0H314.5c-66.8,0.1-120.9,54.2-120.9,120.9
		v1088.5h48.4V120.9c0-40.1,32.5-72.5,72.6-72.6h774.1c-15.8,20.9-24.3,46.4-24.2,72.6v1209.4c0,40.1-32.5,72.6-72.6,72.6
		c-40.1,0-72.6-32.5-72.6-72.6V1282c0-13.4-10.8-24.2-24.2-24.2H24.2c-13.4,0-24.2,10.8-24.2,24.2v48.4
		c0.1,66.8,54.2,120.9,120.9,120.9h870.8c66.8-0.1,120.9-54.2,120.9-120.9V193.5H1282z M120.9,1403c-40.1,0-72.5-32.5-72.6-72.6
		v-24.2h822.4v24.2c0,26.2,8.5,51.7,24.2,72.6H120.9z M1185.3,48.4c40.1,0,72.5,32.5,72.6,72.6v24.2h-145.1v-24.2
		C1112.7,80.9,1145.2,48.4,1185.3,48.4z"/>
	<path d="M508,266.1c-0.3,19.6,8.8,38.2,24.4,50c-4.3,34.7,20.4,66.4,55.1,70.7c5.2,0.6,10.4,0.6,15.6,0c21.5,27.6,61.3,32.6,89,11
		c4.1-3.2,7.8-6.9,11-11c34.7,4.3,66.4-20.4,70.7-55.1c0.6-5.2,0.6-10.4,0-15.6c27.6-21.5,32.6-61.3,11-89c-3.2-4.1-6.9-7.8-11-11
		c4.3-34.7-20.4-66.4-55.1-70.7c-5.2-0.6-10.4-0.6-15.6,0c-21.5-27.6-61.3-32.6-89-11c-4.1,3.2-7.8,6.9-11,11
		c-34.7-4.3-66.4,20.4-70.7,55.1c-0.6,5.2-0.6,10.4,0,15.6C516.8,227.9,507.7,246.5,508,266.1L508,266.1z M567.6,252
		c13-2.9,21.2-15.9,18.3-28.9c-0.6-2.7-1.7-5.3-3.1-7.6c-4.2-6.7-2.2-15.6,4.5-19.9c4.7-3,10.7-3,15.4,0c11.3,7.1,26.2,3.8,33.4-7.5
		c1.5-2.3,2.5-4.9,3.1-7.6c1.8-7.8,9.5-12.6,17.2-10.9c5.4,1.2,9.6,5.5,10.9,10.9c2.9,13,15.9,21.2,28.9,18.3
		c2.7-0.6,5.3-1.7,7.6-3.1c6.7-4.2,15.6-2.2,19.9,4.5c3,4.7,3,10.7,0,15.4c-7.1,11.3-3.8,26.2,7.5,33.4c2.3,1.5,4.9,2.5,7.6,3.1
		c7.8,1.8,12.6,9.5,10.9,17.2c-1.2,5.4-5.5,9.6-10.9,10.9c-13,2.9-21.2,15.9-18.3,28.9c0.6,2.7,1.7,5.3,3.1,7.6
		c4.2,6.7,2.2,15.6-4.5,19.9c-4.7,3-10.7,3-15.4,0c-11.3-7.1-26.2-3.8-33.4,7.5c-1.5,2.3-2.5,4.9-3.1,7.6
		c-1.8,7.8-9.5,12.6-17.2,10.9c-5.4-1.2-9.6-5.5-10.9-10.9c-2.9-13-15.9-21.2-28.9-18.3c-2.7,0.6-5.2,1.7-7.6,3.1
		c-6.7,4.2-15.6,2.2-19.9-4.5c-3-4.7-3-10.7,0-15.4c7.1-11.3,3.8-26.2-7.5-33.4c-2.3-1.5-4.9-2.5-7.6-3.1
		c-7.8-1.8-12.6-9.5-10.9-17.2C557.9,257.5,562.2,253.3,567.6,252L567.6,252z"/>
	<path d="M532.2,556.3H774v48.4H532.2V556.3z"/>
	<path d="M604.7,459.6h241.9V508H604.7V459.6z"/>
	<path d="M459.6,459.6h96.8V508h-96.8V459.6z"/>
	<path d="M411.2,677.3h580.5v48.4H411.2V677.3z"/>
	<path d="M314.5,677.3h48.4v48.4h-48.4V677.3z"/>
	<path d="M411.2,774h387v48.4h-387V774z"/>
	<path d="M846.6,774h145.1v48.4H846.6V774z"/>
	<path d="M411.2,870.8h580.5v48.4H411.2V870.8z"/>
	<path d="M314.5,870.8h48.4v48.4h-48.4V870.8z"/>
	<path d="M411.2,967.6h145.1v48.4H411.2V967.6z"/>
	<path d="M604.7,967.6h387v48.4h-387V967.6z"/>
	<path d="M411.2,1064.3h387v48.4h-387V1064.3z"/>
	<path d="M314.5,1064.3h48.4v48.4h-48.4V1064.3z"/>
	<path d="M411.2,1161.1h580.5v48.4H411.2V1161.1z"/>
	<path d="M846.6,1064.3h145.1v48.4H846.6V1064.3z"/>
	<path d="M1378.8,387h-24.2c0-53.4-43.3-96.8-96.8-96.8s-96.8,43.3-96.8,96.8v774c0,3.8,0.9,7.5,2.6,10.8h0l72.6,145.1
		c6,11.9,20.5,16.8,32.5,10.8c4.7-2.3,8.5-6.1,10.8-10.8l72.6-145.1h0c1.7-3.4,2.6-7.1,2.6-10.8V435.4h24.2
		c13.4,0,24.2,10.8,24.2,24.2v266.1h48.4V459.6C1451.3,419.5,1418.8,387.1,1378.8,387z M1257.8,338.6c26.7,0,48.3,21.7,48.4,48.4
		h-96.8C1209.5,360.3,1231.1,338.7,1257.8,338.6z M1306.2,1136.9h-96.8V774h96.8V1136.9z M1306.2,725.7h-96.8v-48.4h96.8V725.7z
		 M1257.8,1252.1l-33.4-66.9h66.9L1257.8,1252.1z M1306.2,628.9h-96.8V435.4h96.8V628.9z"/>
</g>
</svg>
