<?xml version="1.0" encoding="utf-8"?>
<!-- Generator: Adobe Illustrator 24.0.1, SVG Export Plug-In . SVG Version: 6.00 Build 0)  -->
<svg version="1.1" id="Layer_1" xmlns="http://www.w3.org/2000/svg" xmlns:xlink="http://www.w3.org/1999/xlink" x="0px" y="0px"
	 viewBox="0 0 1451.3 1451.3" style="enable-background:new 0 0 1451.3 1451.3;" xml:space="preserve">
<style type="text/css">
	.st0{fill:#F2CC7B;}
	.st1{fill:#F25F60;}
	.st2{fill:#F2F2F2;}
	.st3{opacity:0.1;enable-background:new    ;}
	.st4{fill:#FFD782;}
	.st5{fill:#FF6465;}
	.st6{fill:#FFFFFF;}
</style>
<path class="st0" d="M1179.2,88.5L1054.1,0c-25,28-67.1,33.5-98.5,11.3L328.7,936.1c31.4,22.2,41.1,64.3,24.3,98.1l125.1,88.5
	c25-28,67.1-33.5,98.5-11.3l0,0c31.4,22.2,41.1,64.3,24.3,98.1l125.1,88.5c25-28,67.1-33.5,98.5-11.3l0,0l0,0l626.9-924.8l0,0l0,0
	c-31.4-22.2-41.1-64.3-24.3-98.1l-125.1-88.5c-25,28-67.1,33.5-98.5,11.3l0,0C1172.1,164.4,1162.3,122.2,1179.2,88.5z"/>
<polygon class="st1" points="1230,533.8 802,1165.2 447.9,914.8 875.8,283.4 "/>
<polygon class="st2" points="726.7,645 831.7,677.1 894.1,585.1 896.6,697 1001.6,729.2 898.1,766.2 900.6,878.1 834.2,789.1 
	730.8,826.1 793.2,734 "/>
<path class="st3" d="M699.5,1279.2L936.7,246.9l-74.1-17.8l6.3-66.9l-13.4-3.2l-526.7,777c31.4,22.2,41.1,64.3,24.3,98.1l125.1,88.5
	c25-28,67.1-33.5,98.5-11.3l0,0c31.4,22.2,41.1,64.3,24.3,98.1L699.5,1279.2z"/>
<path class="st4" d="M487.3,156.4l-148.1-35.5c-13.3,35.4-50.4,56.3-87.6,47.4L0,1263.3c37.2,8.9,61.4,44.5,57.8,82.2l148.1,35.5
	c13.3-35.4,50.4-56.3,87.6-47.4l0,0c37.2,8.9,61.4,44.5,57.8,82.2l148.1,35.5c13.3-35.4,50.4-56.3,87.6-47.4l0,0l0,0L838.6,309l0,0
	l0,0c-37.2-8.9-61.4-44.5-57.8-82.2l-148.1-35.5c-13.3,35.4-50.4,56.3-87.6,47.4l0,0C508,229.7,483.8,194.1,487.3,156.4z"/>
<g>
	<path class="st5" d="M262.6,364.1c-1.8,0-3.7-0.2-5.6-0.7l-47.6-11.4c-13.2-3.1-21.3-16.6-18.2-30c3.1-13.4,16.2-21.8,29.4-18.6
		l47.6,11.4c13.2,3.1,21.3,16.6,18.2,30C283.8,356.4,273.7,364.1,262.6,364.1z"/>
	<path class="st5" d="M656,458.4c-1.8,0-3.7-0.2-5.6-0.7l-98.4-23.6c-13.2-3.1-21.3-16.6-18.2-30c3.1-13.4,16.2-21.8,29.4-18.6
		l98.4,23.6c13.2,3.1,21.3,16.6,18.2,30C677.2,450.7,667.1,458.4,656,458.4z M459.3,411.3c-1.8,0-3.7-0.2-5.6-0.7L355.4,387
		c-13.2-3.1-21.3-16.6-18.2-30c3.1-13.4,16.2-21.8,29.4-18.6l98.4,23.6c13.2,3.1,21.3,16.6,18.2,30
		C480.5,403.5,470.4,411.3,459.3,411.3z"/>
	<path class="st5" d="M802,493.4c-1.8,0-3.7-0.2-5.6-0.7l-47.6-11.4c-13.2-3.1-21.3-16.6-18.2-30c3.1-13.4,16.3-21.8,29.4-18.6
		l47.6,11.4c13.2,3.1,21.3,16.6,18.2,30C823.2,485.7,813.1,493.4,802,493.4z"/>
	<polygon class="st5" points="694.5,551.8 522.7,1299.4 103.4,1198.9 275.2,451.3 	"/>
</g>
<polygon class="st6" points="266,843.5 375.2,834.1 400.2,725.2 442.7,828.4 551.9,819 469,892.1 511.4,995.3 417.7,937.3 
	334.7,1010.5 359.7,901.5 "/>
<g>
	<path class="st1" d="M904.5,199.4c-4.8,0-9.7-1.4-13.9-4.4l-40.2-28.4c-11.1-7.9-13.9-23.4-6.2-34.8c7.7-11.3,22.9-14.2,34-6.3
		l40.2,28.4c11.1,7.9,13.9,23.4,6.2,34.8C919.8,195.7,912.2,199.4,904.5,199.4z"/>
	<path class="st1" d="M1236.7,434.3c-4.8,0-9.7-1.4-13.9-4.4l-83.1-58.7c-11.1-7.9-13.9-23.4-6.2-34.8c7.7-11.3,22.9-14.2,34-6.3
		l83.1,58.7c11.1,7.9,13.9,23.4,6.2,34.8C1252.1,430.6,1244.5,434.3,1236.7,434.3z M1070.6,316.9c-4.8,0-9.7-1.4-13.9-4.4
		l-83.1-58.7c-11.1-7.9-13.9-23.4-6.2-34.8c7.7-11.3,22.9-14.2,34-6.3l83.1,58.7c11.1,7.9,13.9,23.4,6.2,34.8
		C1086,313.1,1078.4,316.9,1070.6,316.9z"/>
	<path class="st1" d="M1360,521.5c-4.8,0-9.7-1.4-13.9-4.4l-40.2-28.4c-11.1-7.9-13.9-23.4-6.2-34.8c7.7-11.3,22.9-14.2,34-6.3
		L1374,476c11.1,7.9,13.9,23.4,6.2,34.8C1375.4,517.8,1367.8,521.5,1360,521.5z"/>
</g>
</svg>
