<?xml version="1.0" encoding="utf-8"?>
<!-- Generator: Adobe Illustrator 24.0.1, SVG Export Plug-In . SVG Version: 6.00 Build 0)  -->
<svg version="1.1" id="Layer_1" xmlns="http://www.w3.org/2000/svg" xmlns:xlink="http://www.w3.org/1999/xlink" x="0px" y="0px"
	 viewBox="0 0 1451.3 1451.3" style="enable-background:new 0 0 1451.3 1451.3;" xml:space="preserve">
<style type="text/css">
	.st0{fill:#C03A2B;}
	.st1{fill:#E6E7E8;}
	.st2{fill:#E64C3C;}
</style>
<path class="st0" d="M1451.3,725.7c0.3,125.6-32.3,249.2-94.6,358.3c-8.5,15-17.5,29.8-27.3,44.3c-10.5,16.1-21.9,31.6-34,46.5
	c-11,14.3-23,28.3-35.3,41.8c-14.8,16-30.3,31.3-46.3,46c-14.8,13.5-30.3,26.5-46.3,38.5c-11.5,9.3-23.5,17.8-35.5,26
	c-18.8,12.5-37.8,24.3-57.6,35.3h-0.5c-33.4,18.2-68.1,33.8-103.9,46.5c-26.4,9.6-53.4,17.5-80.8,23.5
	c-28.9,6.9-58.3,11.7-87.8,14.5c-1.8,0.4-3.7,0.6-5.5,0.7c-23.3,2.3-46.6,3.5-70.3,3.5C324.9,1451.3,0,1126.4,0,725.7
	c0-73.2,11-146,32.5-216c9.7-30.5,21.3-60.3,34.8-89.3c11.7-25.1,24.7-49.6,39-73.3l0.5-0.8c21-34.2,44.8-66.6,71.3-96.8
	c14.5-17.1,30.1-33.3,46.5-48.6l0.5-0.5c22.9-22.3,47.5-42.9,73.6-61.6c16-11.8,32.5-22.8,49.3-33.3c17.5-10.5,35.5-20.3,53.8-29.3
	c16.2-8.4,32.8-16,49.8-22.8h0.2c16.8-7,33.8-13.3,51.3-18.8c16.3-5.3,33-10,49.8-14c216.5-52.9,445.2-3.5,620.5,134.1
	S1451.3,502.8,1451.3,725.7z"/>
<g>
	<path class="st1" d="M1213.9,1262.7c-14.8,13.5-30.3,26.5-46.3,38.5c-504.9-65.9-882.2-496.7-881.1-1005.9
		c-0.1-52.4,4-104.7,12.3-156.4c16-11.8,32.5-22.8,49.3-33.3c3.6,5.3,5,11.8,3.8,18c-47.4,263.5,16.7,534.9,177.1,749.3
		c160.4,214.4,402.5,352.6,668.7,381.5C1203.8,1255.1,1209.6,1258.1,1213.9,1262.7z"/>
	<path class="st1" d="M1295.4,1174.8c-11,14.3-23,28.3-35.3,41.8c-11.5-1.7-22.8-3.5-34-5.5c-6.5-1.2-12.4-4.9-16.2-10.3
		c-3.8-5.4-5.3-12.2-4.1-18.7c0.3-1.5,0.7-2.9,1.3-4.3c4-11.5,15.8-18.3,27.8-16c15.8,3,31.5,5.3,47.5,7.5
		C1287.2,1169.8,1291.8,1171.7,1295.4,1174.8z"/>
	<path class="st1" d="M608.7,754c-7.8-11.4-23.3-14.4-34.8-6.7c-11.4,7.8-14.4,23.3-6.7,34.8c18.8,27.6,39.2,54.7,60.7,80.5
		c5.6,7.1,14.7,10.7,23.7,9.2c9-1.5,16.4-7.7,19.5-16.3c3.1-8.6,1.2-18.1-4.8-24.9C646,806,626.6,780.3,608.7,754z"/>
	<path class="st1" d="M471.2,605.1c12.9,30.8,27.5,61.4,43.6,90.9c4.3,7.9,12.4,12.8,21.3,13.1c8.9,0.2,17.3-4.3,22-11.9
		s4.9-17.2,0.7-25c-15.2-28.1-29.1-56.9-41.4-86.4c-5.3-12.7-20-18.8-32.8-13.4C471.9,577.7,465.9,592.4,471.2,605.1z"/>
	<path class="st1" d="M422.3,335.3h2.5c6.6-0.6,12.7-3.9,16.9-9c4.2-5.1,6.2-11.7,5.6-18.3c-3.1-31.3-4.6-63.3-4.6-95.8
		c0-6.6-2.7-12.9-7.4-17.5c-4.7-4.6-11.1-7.2-17.6-7.1c-13.9,0.2-25.1,11.5-25,25.4c0,33.3,1.6,66.9,4.8,99.8
		C398.9,325.6,409.6,335.3,422.3,335.3z"/>
	<path class="st1" d="M412.3,412.5c6.6,33,14.8,65.6,24.6,97.8c3.2,10.5,12.9,17.7,23.9,17.7c2.5,0,4.9-0.4,7.3-1.1
		c6.4-1.9,11.7-6.3,14.8-12.2c3.1-5.9,3.8-12.7,1.8-19.1c-9.4-30.6-17.2-61.6-23.4-92.9c-2.7-13.6-15.9-22.4-29.4-19.7
		C418.4,385.8,409.6,399,412.3,412.5z"/>
	<path class="st1" d="M846.1,1028.3c-3.6,5.6-4.9,12.3-3.5,18.8c1.4,6.5,5.2,12.2,10.8,15.8c28.1,18.3,57.4,35.5,87.1,50.8
		c12.2,6.1,27.1,1.2,33.4-10.9c6.3-12.1,1.7-27.1-10.3-33.5c-28.2-14.6-56.1-30.9-82.7-48.4c-5.6-3.7-12.4-4.9-18.9-3.6
		C855.4,1018.7,849.7,1022.7,846.1,1028.3z"/>
	<path class="st1" d="M696.1,901.3c-9.7,9.9-9.5,25.7,0.3,35.4c23.9,23.5,49.2,46,75.4,67c10.8,8.7,26.6,7,35.3-3.8
		c8.7-10.8,7-26.6-3.8-35.3c-24.9-20-49-41.4-71.7-63.7c-4.7-4.7-11.2-7.3-17.8-7.2C707.1,893.8,700.7,896.5,696.1,901.3z"/>
	<path class="st1" d="M1018.2,1123.2c-2.5,6.2-2.4,13.1,0.3,19.2c2.6,6.1,7.6,10.9,13.7,13.4c31.3,12.4,63.1,23.3,95.5,32.5
		c2.2,0.7,4.6,1,6.9,1c12.5,0,23.1-9.2,24.8-21.5c1.7-12.4-5.9-24.1-17.9-27.5c-30.6-8.7-61.1-19.1-90.8-30.9
		C1037.9,1104.1,1023.3,1110.4,1018.2,1123.2z"/>
	<path class="st1" d="M453.7,67.3c-2.5,16-4.5,32.3-6.3,48.3c-1.2,12.8-11.9,22.6-24.8,22.5h-2.5c-13.8-1.5-23.8-13.7-22.5-27.5
		c1.3-11.5,2.5-23,4.3-34.3c16.2-8.4,32.8-16,49.8-22.8h0.2C453.8,57.9,454.4,62.7,453.7,67.3z"/>
	<path class="st1" d="M106.9,346.3c8.4,4.8,13.3,13.9,12.5,23.5c-1.3,16-2,32.3-2.2,48.5c-0.4,13.6-11.4,24.4-25,24.5h-0.5
		c-12.6-0.3-23-10-24.3-22.5L106.9,346.3z"/>
	<path class="st1" d="M197.5,823.5c-13.9-31.8-26.1-64.3-36.5-97.4c-2.7-8.5-9.7-15-18.4-16.9c-8.7-1.9-17.8,0.9-23.9,7.5
		c-6.1,6.6-8.1,15.9-5.4,24.4c11,34.9,23.8,69.1,38.4,102.6c3.4,8.5,11.1,14.4,20.2,15.5c9.1,1.1,18-2.8,23.3-10.2
		c5.3-7.4,6.2-17.1,2.3-25.4V823.5z"/>
	<path class="st1" d="M135.3,625.3c-6.7-34-11.6-68.4-14.7-102.9c-0.6-9-6.1-17-14.3-20.9c-8.2-3.9-17.8-3-25.2,2.2
		c-7.4,5.2-11.4,14.1-10.4,23C74,563,79.1,599.2,86.2,635c1.7,8.8,8,16,16.5,18.9c8.5,2.9,17.8,1,24.6-4.9
		C134,643.1,137,634,135.3,625.3z"/>
	<path class="st1" d="M609.5,1278.1c-30.2-17-59.5-35.6-87.8-55.8c-7.3-5.2-16.8-6.1-24.9-2.4c-8.1,3.7-13.7,11.5-14.5,20.4
		c-0.9,8.9,3.1,17.6,10.4,22.8c29.7,21.2,60.5,40.7,92.3,58.6c12,6.8,27.3,2.5,34.1-9.5C625.8,1300.1,621.5,1284.9,609.5,1278.1z"/>
	<path class="st1" d="M366.5,1084.3c-9.4-9.8-24.8-10.3-34.9-1.2c-10,9.1-11,24.5-2.2,34.8c24.5,27,50.4,52.7,77.6,77
		c10.3,9.2,26.1,8.3,35.3-2c9.2-10.3,8.3-26.1-2-35.3C414.5,1134.4,389.8,1110,366.5,1084.3z"/>
	<path class="st1" d="M800.2,1359.6c-33.2-10.1-65.7-22-97.6-35.6c-12.7-5.3-27.3,0.6-32.6,13.3c-5.4,12.6,0.4,27.3,13,32.8
		c33.5,14.4,67.8,26.9,102.7,37.5c2.4,0.7,4.8,1.1,7.3,1.1c12.4,0,22.9-9.1,24.8-21.3C819.6,1375,812.1,1363.3,800.2,1359.6
		L800.2,1359.6z"/>
	<path class="st1" d="M244.4,916.3c-6.9-12-22.2-16.1-34.2-9.2c-12,6.9-16.1,22.2-9.2,34.2c18.2,31.6,38,62.3,59.5,91.8
		c4.7,6.5,12.3,10.3,20.3,10.3c9.4,0,18-5.3,22.3-13.7c4.3-8.4,3.5-18.5-2.1-26.1C280.5,975.6,261.6,946.4,244.4,916.3z"/>
	<path class="st1" d="M970.1,1409.1c-26.4,9.6-53.4,17.5-80.8,23.5c-12.5-4.1-19.6-17.2-16.3-29.9c3.3-12.7,15.9-20.7,28.8-18.1
		c16,3,32,5.5,48,7.8C959.3,1393.4,967.2,1400,970.1,1409.1z"/>
	<path class="st1" d="M225.2,200.4c5.4,5.5,8,13.3,6.8,21c-2.2,16-4,32-5.5,48.5c-1.2,12.9-12,22.8-25,22.8c-0.8,0-1.5,0-2.2-0.2
		c-6.6-0.6-12.7-3.8-16.9-8.8c-4.2-5.1-6.3-11.6-5.6-18.2c0.5-5.5,1-10.8,1.5-16L225.2,200.4z"/>
	<path class="st1" d="M760.1,1274.7c8.1,3.9,17.7,3.1,25.1-2.1c7.4-5.1,11.4-13.9,10.6-22.8c-0.8-9-6.4-16.8-14.6-20.5
		c-29.7-13.8-58.7-29.1-86.9-45.9c-11.9-7.1-27.2-3.2-34.3,8.7c-7.1,11.9-3.2,27.2,8.7,34.3C698.4,1244.1,728.9,1260.2,760.1,1274.7
		z"/>
	<path class="st1" d="M536.7,1066.3c-6.6-6-15.9-8.1-24.4-5.4c-8.5,2.7-15,9.7-16.9,18.5c-1.9,8.7,1,17.8,7.6,23.9
		c25.5,23.3,52.1,45.2,79.8,65.8c4.3,3.2,9.5,5,14.9,5c10.8,0,20.3-6.9,23.7-17.1c3.4-10.2-0.1-21.5-8.7-27.9
		C586.3,1109.4,560.9,1088.5,536.7,1066.3z"/>
	<path class="st1" d="M966.8,1293.3c-31.9-7.5-63.4-16.5-94.4-27.2c-8.5-3.1-18-1.4-24.9,4.5c-6.9,5.9-10,15-8.3,23.9
		c1.8,8.9,8.2,16.1,16.8,18.9c32.6,11.2,65.8,20.8,99.4,28.6c13.3,2.8,26.4-5.6,29.5-18.8C988,1310.1,980,1296.8,966.8,1293.3
		L966.8,1293.3z"/>
	<path class="st1" d="M343.1,871.5c5.7-3.3,9.9-8.8,11.6-15.2c1.7-6.4,0.8-13.2-2.5-19c-16.5-28.4-31.5-57.6-44.9-87.6
		c-5.9-12.2-20.4-17.5-32.8-12c-12.4,5.6-18,20-12.8,32.5c14.2,31.5,29.9,62.2,47.3,92.1C315.9,874.2,331.1,878.3,343.1,871.5
		L343.1,871.5z"/>
	<path class="st1" d="M405.8,919.7c-8.3-10.5-23.5-12.6-34.3-4.7c-10.9,7.9-13.6,22.9-6.1,34.1c20.3,27.9,41.9,54.8,64.9,80.6
		c9.2,10.3,25,11.2,35.3,2c10.3-9.2,11.2-25,2-35.3C445.7,971.9,425.1,946.3,405.8,919.7z"/>
	<path class="st1" d="M204.2,494.2c1,0,1.9-0.1,2.9-0.2c6.6-0.8,12.6-4.1,16.7-9.3c4.1-5.2,6-11.8,5.3-18.4
		c-3.8-32.6-5.9-65.3-6.4-98.1c-0.4-13.7-11.6-24.7-25.4-24.7c-6.6,0.1-13,2.8-17.6,7.6c-4.6,4.8-7.2,11.2-7.1,17.8
		c0.5,34.5,2.7,68.9,6.7,103.2C180.8,484.7,191.5,494.3,204.2,494.2z"/>
	<path class="st1" d="M215.6,544.3c-13.5,3-22,16.3-19,29.8c7.5,33.7,16.7,67,27.5,99.8c3.4,10.2,13,17.1,23.8,17.1
		c2.7,0,5.3-0.4,7.9-1.3c6.3-2.1,11.5-6.6,14.5-12.5c3-5.9,3.5-12.8,1.4-19.1c-10.3-31.1-19.1-62.8-26.2-94.8
		c-1.4-6.5-5.4-12.1-11-15.7C228.9,544,222.1,542.8,215.6,544.3z"/>
	<path class="st1" d="M1132.1,1327.2c-18.8,12.5-37.8,24.3-57.6,35.3h-0.5c-5.3-0.8-10.8-1.3-16-2c-13.1-2.4-21.9-14.7-20.2-27.8
		c1.7-13.2,13.5-22.7,26.7-21.7c16,2,32,3.5,48.5,4.8C1120.9,1316.2,1128,1320.5,1132.1,1327.2z"/>
	<path class="st1" d="M553.8,29.5c-1.5,16.3-2.7,32.3-3.8,48.8c-0.7,13.2-11.6,23.6-24.8,23.5h-1.5c-13.7-0.8-24.2-12.5-23.5-26.3
		c0.5-13.5,1.7-27.3,3-40.8c16.3-5.3,33-10,49.8-14C553.8,23.6,554,26.6,553.8,29.5z"/>
	<path class="st1" d="M813,864.5c6.5,6.2,15.8,8.4,24.3,5.9c8.6-2.5,15.2-9.4,17.3-18.1c2.1-8.7-0.6-17.8-7.1-24
		c-25.1-24-48.9-49.2-71.3-75.7c-5.7-7-14.8-10.4-23.7-8.9c-8.9,1.5-16.3,7.8-19.3,16.3c-3,8.5-1.2,18,4.8,24.8
		C761.5,812.7,786.6,839.3,813,864.5z"/>
	<path class="st1" d="M1082.5,1049.2c33,15.5,66.8,29.2,101.3,41c2.6,0.9,5.3,1.4,8.1,1.4c12.2,0,22.7-8.8,24.7-20.9
		c2-12.1-5-23.8-16.6-27.8c-32.8-11.2-64.9-24.3-96.3-39c-8.1-4.1-17.8-3.5-25.4,1.7s-11.7,14-10.8,23
		C1068.4,1037.7,1074.2,1045.6,1082.5,1049.2z"/>
	<path class="st1" d="M986.2,997.5c11.8,6.9,26.9,3.1,34-8.6c7.1-11.7,3.5-26.9-8-34.2c-29.6-18-58.2-37.6-85.7-58.8
		c-11-7.9-26.3-5.7-34.5,5.1c-8.2,10.7-6.5,26.1,4,34.6C924.9,957.9,955,978.5,986.2,997.5z"/>
	<path class="st1" d="M615.7,603.8c17.1,32.3,35.8,63.6,56.3,93.8c5,7.4,13.6,11.6,22.5,11s16.8-6,20.7-14c3.9-8,3.2-17.6-1.8-25
		c-19.4-28.7-37.3-58.5-53.5-89.1c-4.2-7.9-12.3-13-21.2-13.3c-8.9-0.3-17.4,4.1-22.1,11.7C611.9,586.5,611.5,596,615.7,603.8
		L615.7,603.8z"/>
	<path class="st1" d="M523.8,158.7c-13.8,0.7-24.4,12.5-23.6,26.3c1.9,36.4,5.8,72.7,11.6,108.7c1.4,8.8,7.5,16.2,15.8,19.4
		c8.4,3.2,17.8,1.6,24.7-4c6.9-5.7,10.3-14.6,8.9-23.4c-5.5-34.2-9.2-68.7-11.1-103.4c-0.3-6.6-3.3-12.8-8.2-17.3
		C536.9,160.6,530.4,158.3,523.8,158.7z"/>
	<path class="st1" d="M535.1,400.6c9.7,35.2,21.3,69.9,34.8,103.8c3.8,9.5,13,15.8,23.3,15.8c8.3,0,16-4.1,20.7-11
		c4.7-6.9,5.6-15.6,2.6-23.3c-12.8-32.3-23.8-65.2-33.1-98.6c-3.8-13.1-17.5-20.8-30.7-17.1C539.5,373.9,531.7,387.4,535.1,400.6z"
		/>
	<path class="st1" d="M1356.8,1084c-8.5,15-17.5,29.8-27.3,44.3c-13.5-2.2-26.8-5-39.8-8c-9-1.7-16.3-8.2-19.1-16.9
		c-2.8-8.7-0.7-18.2,5.6-24.8c6.3-6.6,15.6-9.3,24.5-7.1c15.8,3.5,31.8,6.5,47.8,9.3C1351.5,1081.2,1354.3,1082.3,1356.8,1084z"/>
</g>
<path class="st2" d="M1233.4,409.3c-56.3-70-136.9-98.6-180-64c-43.1,34.7-32.3,119.5,24,189.5c56.3,70,136.9,98.6,180,63.9
	C1300.5,564.1,1289.7,479.3,1233.4,409.3z"/>
<path class="st2" d="M904.8,171.1c-40.6-8.4-79,11.1-85.7,43.6c-6.7,32.5,20.7,65.6,61.3,74c40.6,8.4,79-11.1,85.7-43.6
	C972.8,212.6,945.4,179.5,904.8,171.1z"/>
</svg>
