<?xml version="1.0" encoding="utf-8"?>
<!-- Generator: Adobe Illustrator 24.0.1, SVG Export Plug-In . SVG Version: 6.00 Build 0)  -->
<svg version="1.1" id="Capa_1" xmlns="http://www.w3.org/2000/svg" xmlns:xlink="http://www.w3.org/1999/xlink" x="0px" y="0px"
	 viewBox="0 0 1451.3 1451.3" style="enable-background:new 0 0 1451.3 1451.3;" xml:space="preserve">
<style type="text/css">
	.st0{fill:#FFE470;}
	.st1{fill:#FFD400;}
	.st2{fill:#5A69E6;}
	.st3{fill:#3A4DE2;}
</style>
<path class="st0" d="M1392.5,0H279.1c-15.6,0-30.6,4.5-41.6,12.5L17.2,171.6c-11,8-17.2,18.8-17.2,30.1v1207.1
	c0,23.5,26.3,42.5,58.8,42.5h1333.7c32.5,0,58.8-19,58.8-42.5V42.5C1451.3,19,1425,0,1392.5,0z"/>
<path class="st1" d="M1392.5,0H725.7v1451.3h666.8c32.5,0,58.8-19,58.8-42.5V42.5C1451.3,19,1425,0,1392.5,0z"/>
<g>
	<path class="st2" d="M1157.1,1247.2h-863c-32.5,0-58.8-19-58.8-42.5c0-23.5,26.3-42.5,58.8-42.5h863c32.5,0,58.8,19,58.8,42.5
		C1216,1228.2,1189.6,1247.2,1157.1,1247.2z"/>
	<path class="st2" d="M1157.1,1077.2h-863c-32.5,0-58.8-19-58.8-42.5s26.3-42.5,58.8-42.5h863c32.5,0,58.8,19,58.8,42.5
		S1189.6,1077.2,1157.1,1077.2z"/>
</g>
<g>
	<path class="st3" d="M1157.1,1162.2H725.7v85h431.5c32.5,0,58.8-19,58.8-42.5C1216,1181.2,1189.6,1162.2,1157.1,1162.2z"/>
	<path class="st3" d="M1157.1,992.1H725.7v85h431.5c32.5,0,58.8-19,58.8-42.5S1189.6,992.1,1157.1,992.1z"/>
	<path class="st3" d="M1157.1,907.1H843.3c-32.5,0-58.8-19-58.8-42.5c0-23.5,26.3-42.5,58.8-42.5h313.8c32.5,0,58.8,19,58.8,42.5
		C1216,888,1189.6,907.1,1157.1,907.1z"/>
</g>
<path class="st2" d="M701.3,682.5c-102.5-2.5-186.2-40.7-186.2-80.2c0-21,25.6-51.8,58.1-51.8c35.9,0,64.9,36.4,128.1,44.4v-100
	c-78.6-21.6-170.8-48.1-170.8-127.1c0-78.4,80.3-116,170.8-125.3v-17.3c0-8.6,13.7-16.7,32.4-16.7c16.2,0,32.4,8,32.4,16.7v15.4
	c52.9,1.2,152.9,11.1,152.9,53.7c0,16.7-15.4,50.6-52.9,50.6c-28.2,0-44.4-19.7-99.9-22.8v90.1c77.7,21,168.2,50,168.2,133.3
	c0,76.5-68.3,122.8-168.2,134.5v17.9c0,8.6-16.2,16.7-32.4,16.7c-18.8,0-32.4-8-32.4-16.7L701.3,682.5L701.3,682.5z M709.9,397.4
	V324c-38.4,5.6-54.7,19.7-54.7,34.6C655.2,376.4,677.4,387.5,709.9,397.4z M757.7,511.6v82.7c29-4.9,52.1-16.7,52.1-38.9
	C809.8,535,788.4,522.1,757.7,511.6z"/>
<path class="st3" d="M766.2,412.2v-90.1c55.5,3.1,71.7,22.8,99.9,22.8c37.6,0,52.9-33.9,52.9-50.6c0-42.6-99.9-52.5-152.9-53.7
	v-15.4c0-8.6-16.2-16.7-32.4-16.7c-3.1,0-6.1,0.2-9,0.7v504.7c2.8,0.4,5.8,0.7,9,0.7c16.2,0,32.4-8,32.4-16.7V680
	c99.9-11.7,168.2-58,168.2-134.5C934.5,462.2,843.9,433.2,766.2,412.2z M757.7,594.3v-82.7c30.7,10.5,52.1,23.4,52.1,43.8
	C809.8,577.6,786.7,589.3,757.7,594.3z"/>
</svg>
