<?xml version="1.0" encoding="utf-8"?>
<!-- Generator: Adobe Illustrator 24.0.1, SVG Export Plug-In . SVG Version: 6.00 Build 0)  -->
<svg version="1.1" id="Capa_1" xmlns="http://www.w3.org/2000/svg" xmlns:xlink="http://www.w3.org/1999/xlink" x="0px" y="0px"
	 viewBox="0 0 1451.3 1451.3" style="enable-background:new 0 0 1451.3 1451.3;" xml:space="preserve">
<style type="text/css">
	.st0{fill:#565959;}
	.st1{fill:#404242;}
	.st2{fill:#4B88D5;}
	.st3{fill:#69A7FF;}
</style>
<g>
	<path class="st0" d="M738.9,1194.7l-114.4,55.9l-9.2,40.2c-13.2,58.1-63.5,105.6-111.7,105.6v27.4h378.2L738.9,1194.7z"/>
	<path class="st1" d="M835.9,1290.9l-9.2-40.2l-25.2-110.3L725.7,1030l-75.9,110.4l-25.2,110.3c38.1-0.8,76.2-1.2,114.4-1l9.4,41.3
		c13.2,58.1,63.5,105.6,111.7,105.6l43.8,27.4l43.8-27.4C899.4,1396.5,849.2,1349,835.9,1290.9L835.9,1290.9z"/>
	<path class="st0" d="M1354.5,1180.8c-418.1-54.7-839.6-54.7-1257.7,0C45.1,1187.5,0,1136.8,0,1071.7c0-231.6,0-730.4,0-961.9
		C0,44.5,45.1-6.2,96.8,0.6c418.1,54.7,839.6,54.7,1257.7,0c51.7-6.8,96.8,43.9,96.8,109.1v961.9
		C1451.3,1136.8,1406.3,1187.5,1354.5,1180.8z"/>
	<path class="st2" d="M1363.7,109.8c-29.2,3.8-58.4,7.3-87.6,10.6L969.5,590.7l306.6,470.3c29.2,3.3,58.5,6.8,87.6,10.6
		L1363.7,109.8z"/>
	<path class="st3" d="M725.7,151.4c-212.3,0-426.4-14-638.1-41.7l0,961.9c211.6-27.7,425.8-41.7,638.1-41.7
		c183,0,367.5,10.4,550.5,31V120.4C1093.1,141,908.7,151.4,725.7,151.4z"/>
	<path class="st1" d="M1112.6,1451.3H338.7c-12.1,0-21.9-12.3-21.9-27.4c0-15.2,9.8-27.4,21.9-27.4h773.9
		c12.1,0,21.9,12.3,21.9,27.4C1134.5,1439.1,1124.7,1451.3,1112.6,1451.3z"/>
</g>
</svg>
