<?xml version="1.0" encoding="utf-8"?>
<!-- Generator: Adobe Illustrator 24.0.1, SVG Export Plug-In . SVG Version: 6.00 Build 0)  -->
<svg version="1.1" id="Layer_1" xmlns="http://www.w3.org/2000/svg" xmlns:xlink="http://www.w3.org/1999/xlink" x="0px" y="0px"
	 viewBox="0 0 1451.3 1451.3" style="enable-background:new 0 0 1451.3 1451.3;" xml:space="preserve">
<style type="text/css">
	.st0{fill:#71C285;}
	.st1{fill:#4C8056;}
	.st2{fill:#FFFFFF;}
	.st3{fill:#35495E;}
	.st4{fill:#2C3E50;}
</style>
<path class="st0" d="M1451.3,1180.8c0,149.6-324.8,270.6-725.7,270.6c-400.9,0-725.7-121-725.7-270.6c0-74.5,80.6-142.2,211.5-191.1
	c19.8,28.3,42.1,54.9,66.6,79.5c4.5,4.7,9,9.1,13.8,13.3c9,8.9,18.3,17,27.8,24.8c0.5,0.5,0.7,1,1.3,1.2c8.5,7.1,17,14,26,20.4
	c2,1.7,4.2,3.3,6.5,4.7c9,6.9,18.3,13.3,27.8,19.4c1.4,0.9,2.8,1.7,4.2,2.5c7.5,5.2,15,9.6,22.8,14c6.3,3.9,12.8,7.4,19.3,10.8
	c8.8,4.9,17.8,9.3,27,13.5c7.3,3.7,15,6.9,22.5,10.3c11.5,4.9,23.3,9.3,35,13.5c6.5,2.2,12.8,4.4,19.3,6.4c9,2.9,18,5.7,27.3,8.1
	c0.5,0.3,1.1,0.5,1.7,0.5c0.2,0.2,0.5,0.3,0.8,0.2c6,1.7,12.3,3.2,18.5,4.4c0.4,0.5,1.1,0.7,1.7,0.5c6.3,1.7,12.6,3.1,19,4.2
	c2.4,0.7,4.8,1.2,7.3,1.5c6.8,1.2,13.5,2.5,20.5,3.4c19.2,3.1,38.6,5.3,58.1,6.4c3.8,0.2,7.5,0.5,11,0.5c9.5,0.5,19,0.7,28.5,0.7
	c9.5,0,19-0.2,28.5-0.7c3.5,0,7.3-0.3,11-0.5c19.5-1.1,38.8-3.3,58.1-6.4c7-1,13.8-2.2,20.5-3.4c2.5-0.3,4.9-0.8,7.3-1.5
	c6.4-1,12.8-2.4,19-4.2c0.6,0.2,1.3,0,1.8-0.5c6.3-1.2,12.5-2.7,18.5-4.4c0.3,0,0.6-0.1,0.8-0.2c0.6,0,1.2-0.2,1.8-0.5
	c9.3-2.5,18.3-5.2,27.3-8.1c6.5-2,12.8-4.2,19.3-6.4c11.8-4.2,23.5-8.6,35-13.5c7.5-3.4,15.3-6.6,22.5-10.3
	c9.3-4.2,18.3-8.6,27-13.5c6.5-3.4,13-6.9,19.3-10.8c7.8-4.4,15.3-8.9,22.8-14c1.5-0.7,2.9-1.5,4.3-2.5c9.5-6.1,18.8-12.5,27.8-19.4
	c2.3-1.4,4.5-3,6.5-4.7c9-6.4,17.5-13.3,26-20.4c0.5-0.2,0.8-0.7,1.3-1.2c9.5-7.9,18.8-16,27.8-24.8c4.8-4.2,9.3-8.6,13.8-13.3
	c24.5-24.5,46.8-51.1,66.6-79.5C1370.8,1038.6,1451.3,1106.2,1451.3,1180.8z"/>
<path class="st1" d="M1276.2,1180.8c0-95.1-246.5-172.2-550.5-172.2c-304,0-550.5,77.1-550.5,172.2c0,95.1,246.5,172.2,550.5,172.2
	C1029.7,1353,1276.2,1275.9,1276.2,1180.8z"/>
<path class="st2" d="M1325.2,815c-2,6.4-4,12.8-6.3,19.2c-4,12.8-8.8,25.3-14,37.6c-2.5,6.1-5.3,12-8,18.2c-2.8,6.1-5.5,12-8.5,18
	c-4.5,9.6-9.5,18.9-14.8,28.3c-3.3,5.9-6.8,11.8-10.3,17.7c-7.3,12-15,24.1-23.5,35.7c-19.8,28.3-42.1,54.9-66.6,79.5
	c-4.5,4.4-9,8.9-13.8,13.3H975.9L850.8,861l125.1-221.4h250.2L1325.2,815z"/>
<path class="st3" d="M1159.6,1082.4c-9,8.6-18.3,17-27.8,24.8c-0.5,0.5-0.8,1-1.3,1.2c-8.5,7.1-17,14-26,20.4
	c-2,1.7-4.2,3.3-6.5,4.7c-9,6.9-18.3,13.3-27.8,19.4c-1.4,0.9-2.8,1.7-4.3,2.5c-7.3,5.1-14.9,9.8-22.8,14
	c-6.3,3.9-12.8,7.4-19.3,10.8c-9,4.7-18,9.3-27,13.5c-7.5,3.7-14.8,6.9-22.5,10.3c-11.5,4.9-23.3,9.3-35,13.5
	c-6.3,2.5-12.8,4.4-19.3,6.4c-9,2.9-18,5.7-27.3,8.1c-0.5,0.3-1.1,0.5-1.8,0.5l84.8-150.3H1159.6z"/>
<path class="st3" d="M560.3,1232.7c-0.6,0-1.2-0.2-1.7-0.5c-9.3-2.5-18.3-5.2-27.3-8.1c-6.5-2-13-3.9-19.3-6.4
	c-11.8-4.2-23.5-8.6-35-13.5c-7.7-3.4-15-6.6-22.5-10.3c-9-4.2-18-8.9-27-13.5c-6.5-3.4-13-6.9-19.3-10.8c-7.8-4.3-15.4-8.9-22.8-14
	c-1.5-0.7-2.9-1.5-4.2-2.5c-9.5-6.1-18.8-12.5-27.8-19.4c-2.3-1.4-4.5-3-6.5-4.7c-9-6.4-17.5-13.3-26-20.4c-0.5-0.2-0.8-0.7-1.3-1.2
	c-9.5-7.9-18.8-16.2-27.8-24.8h183.7L560.3,1232.7z"/>
<path class="st2" d="M600.6,861l-125.1,221.4H291.8c-4.8-4.4-9.3-8.8-13.8-13.3c-24.5-24.5-46.8-51.1-66.6-79.5
	c-8.5-11.6-16.3-23.6-23.5-35.7c-3.5-5.9-7-11.8-10.3-17.7c-5.2-9.3-10.2-18.7-14.8-28.3c-3-5.9-5.8-11.8-8.5-18
	c-2.7-6.2-5.5-12.1-8-18.2c-5.3-12.3-10-24.8-14-37.6c-2.2-6.4-4.2-12.8-6.3-19.2l99.1-175.4h250.2L600.6,861z"/>
<path class="st3" d="M225.2,639.6L126.1,815c-34.7-114.4-34.7-236.3,0-350.8L225.2,639.6z"/>
<path class="st2" d="M600.6,418.2L475.4,639.6H225.2l-99.1-175.4c30.6-101.8,87.7-193.9,165.7-267.4h183.7L600.6,418.2z"/>
<path class="st3" d="M975.9,639.6L850.8,861H600.6L475.4,639.6l125.1-221.4h250.2L975.9,639.6z"/>
<path class="st2" d="M975.9,1082.4l-84.8,150.3c-0.2,0.2-0.5,0.3-0.8,0.2c-6.3,1.7-12.3,3.2-18.5,4.4c-0.4,0.5-1.1,0.7-1.8,0.5
	c-6.3,1.7-12.5,2.9-19,4.2c-2.4,0.7-4.8,1.2-7.3,1.5c-6.7,1.5-13.8,2.5-20.5,3.4c-19.2,3.1-38.6,5.3-58.1,6.4
	c-3.5,0.2-7.3,0.5-11,0.5c-9.5,0.5-19,0.7-28.5,0.7c-9.5,0-19-0.2-28.5-0.7c-3.8,0-7.5-0.3-11-0.5c-19.5-1.1-38.8-3.3-58.1-6.4
	c-6.8-1-13.8-2-20.5-3.4c-2.5-0.3-4.9-0.8-7.3-1.5c-6.5-1.2-12.8-2.5-19-4.2c-0.6,0.2-1.3,0-1.7-0.5c-6.3-1.2-12.3-2.7-18.5-4.4
	c-0.3,0-0.6-0.1-0.8-0.2l-84.8-150.3L600.6,861h250.2L975.9,1082.4z"/>
<path class="st2" d="M1325.2,464.2l-99.1,175.4H975.9L850.8,418.2l125.1-221.4h183.7C1237.5,270.3,1294.6,362.5,1325.2,464.2z"/>
<path class="st3" d="M1159.6,196.9H975.9L891.1,46.6C992.1,73.5,1084.4,125.2,1159.6,196.9z"/>
<path class="st3" d="M560.3,46.6l-84.8,150.3H291.8C366.9,125.2,459.3,73.5,560.3,46.6z"/>
<path class="st2" d="M975.9,196.9L850.8,418.2H600.6L475.4,196.9l84.8-150.3c108.3-29.2,222.5-29.2,330.8,0L975.9,196.9z"/>
<path class="st3" d="M1351.2,639.6c0.1,59.4-8.7,118.5-26,175.4l-99.1-175.4l99.1-175.4C1342.6,521.1,1351.3,580.2,1351.2,639.6z"/>
<path class="st4" d="M1375.8,615.5v-2.7c-0.2-5.7-0.5-11.4-1-16.5c-0.5-9-1.3-18.1-2.5-28.5c-1-8.7-2-17.5-3.4-25.4
	c-1.4-9.3-3-18.8-5-27.3c-3.7-19.5-8.6-38.7-14.5-57.6l-0.1-0.4c-2.1-6.7-4.2-13.3-6.3-19.2c-4.2-13.4-9.1-26.6-14.7-39.6
	c-2.1-5.2-4.4-10.2-6.7-15.3l-1.7-3.7c-2.9-6.5-5.8-12.8-8.7-18.4c-4.8-10.1-10-20-15.5-29.7c-3.4-6.1-7-12.3-10.8-18.6
	c-7.1-11.5-14.4-23.1-22.1-33.9c-5.2-7.4-10.4-14.6-15.8-21.6c-16.9-22.5-35.5-43.8-55.5-63.8c-5-5.2-10-10.1-14.5-14
	c-9.1-8.7-18.4-17.2-27.9-25.1c-0.7-0.7-1.5-1.4-2.3-2.1c-9-7.6-18.1-14.8-28.1-22.1c-2.1-1.6-4.2-3.2-6.5-4.6
	c-9.2-6.9-18.6-13.4-28-19.5c-1.7-1.1-3.4-2.2-5.2-3.1c-7.2-4.9-14.6-9.5-22.3-13.7c-6.5-4.1-13.4-7.8-21.8-12.3
	c-9.1-4.7-18.2-9.4-26.8-13.4c-7.2-3.5-14.1-6.6-23.7-10.9c-12-5.1-24.3-9.7-35.7-13.8c-6.9-2.7-14.1-4.9-20.6-6.9
	c-8.9-2.9-17.8-5.6-27-8.1c-1.4-0.5-2.9-1-4.4-1.3c-6.4-1.7-12.5-3.3-18.9-4.5l-0.9-0.2c-6.1-1.7-12.3-3.1-18.5-4.1
	c-3.4-1-6.8-1.8-10.3-2.2c-6.5-1.4-13.2-2.5-20.4-3.4c-20.1-3.3-40.3-5.5-60.6-6.7c-4.1-0.3-8.4-0.5-10.7-0.5
	c-6.7-0.5-13.1-0.5-18.1-0.5c-7.7-0.5-15.5-0.5-23.2,0c-6.7,0-13.2,0-17.8,0.5c-4.3,0-8.7,0.3-12.5,0.5c-20.6,1.2-41.2,3.4-61.6,6.8
	c-6.4,0.9-13.1,1.9-19.5,3.3c-2.7,0.3-5.4,0.8-8,1.6c-7.2,1.4-14.1,2.8-21,4.7l-0.9,0.2c-6.1,1.2-12,2.6-18,4.3
	c-1.4,0.3-2.8,0.7-4.1,1.2c-9.6,2.5-18.9,5.3-27.5,8.2c-7.2,2.2-14.4,4.4-20.5,6.8c-12.2,4.4-24.5,9-38.8,15.1
	c-7.3,3.3-14.3,6.4-21,9.7c-9.1,4.2-18.2,8.9-28.9,14.5c-6.8,3.6-13.6,7.4-18.7,10.5c-8.1,4.4-16.1,9.3-23.7,14.5
	c-1.7,0.9-3.4,1.9-5,3c-9.7,6.2-19.1,12.7-28.2,19.7c-2.4,1.6-4.8,3.2-7,5c-9.5,6.8-18.6,14.1-27.5,21.6c-0.8,0.7-1.5,1.3-2.3,2
	c-10.9,9-19.9,17.2-27.7,24.9c-5,4.6-9.6,9.2-14.4,13.9c-20.1,20-38.7,41.4-55.8,64c-5.5,7.2-10.7,14.3-15.7,21.6
	c-7.8,11-15.1,22.6-22.5,34.4c-3.6,6.1-7.2,12.3-10.5,18.2c-5.6,9.8-10.8,19.7-15.3,29.2c-3.2,6.2-6.1,12.5-9,19l-1.7,3.7
	c-2.3,5.1-4.5,10.1-6.5,14.9c-5.4,12.4-10.1,25.1-14.2,38.1c-2.7,6.9-5,13.9-6.9,21l-0.1,0.5c-5.8,18.7-10.6,37.6-14.3,56.8
	c-2.2,9.3-3.8,18.8-5,27.4c-1.2,8.6-2.5,17.4-3.7,27.4c-1.1,9.1-1.8,18.1-2.4,26.6c-0.5,5.7-0.7,11.4-1,17v2.7
	c-0.3,8.1-0.5,16-0.5,24.1c0,8.1,0.2,16,0.5,24.1v2.7c0.3,5.7,0.5,11.3,1,16.4c0.5,9,1.3,18.1,2.5,28.5c1,8.7,2.1,17.5,3.4,25.4
	c1.4,9.3,3,18.8,5,27.3c3.7,19.5,8.5,38.8,14.4,57.8v0.4c2.1,6.7,4.2,13.3,6.3,19.2c4.2,13.4,9.1,26.6,14.7,39.6
	c2.1,5.2,4.4,10.2,6.7,15.3l1.7,3.7c2.9,6.5,5.8,12.8,8.7,18.4c4.8,10.1,10,20,15.5,29.7c3.4,6.1,7,12.3,10.7,18.4
	c8.6,14.2,16.7,26.5,24.5,37.1c20.5,29.4,43.6,57,69,82.4c5,5.2,10,10.1,14.5,14c9.1,8.7,18.4,17.2,28,25.1c0.7,0.7,1.5,1.4,2.3,2.1
	c9,7.6,18.1,14.8,28.1,22.1c2.1,1.6,4.2,3.2,6.4,4.6c9.2,6.9,18.6,13.4,28,19.5c1.7,1.1,3.4,2.2,5.3,3.1c7.1,4.9,14.6,9.5,22.2,13.6
	c6.5,4.1,13.4,7.8,21.8,12.3c9.1,4.7,18.2,9.4,26.8,13.4c7.2,3.5,14.2,6.6,23.7,10.9c12,5.1,24.3,9.7,35.7,13.8
	c6.9,2.7,14.1,4.9,20.6,6.9c8.9,2.9,17.8,5.6,27,8.1c1.4,0.5,2.9,1,4.4,1.3c6.4,1.7,12.5,3.3,18.9,4.5l0.9,0.2
	c6.1,1.7,12.3,3,18.6,4.1c3.4,1,6.8,1.8,10.3,2.2c6.5,1.4,13.2,2.5,20.4,3.4c20,3.3,40.3,5.5,60.5,6.7c4,0.3,8.1,0.4,11.4,0.5
	c10,0.5,20,0.8,29.9,0.8c9.8,0,20-0.2,28.5-0.7c4.3,0,8.7-0.3,12.5-0.5c20.6-1.2,41.1-3.5,61.5-6.8c6.4-0.9,13.1-1.9,19.5-3.3
	c2.7-0.3,5.4-0.8,7.9-1.6c7.2-1.4,14.1-2.8,21-4.7l0.9-0.2c6.1-1.2,12-2.6,18-4.3c1.4-0.3,2.8-0.7,4.1-1.2
	c9.6-2.5,18.9-5.3,27.5-8.2c7.2-2.2,14.4-4.4,20.5-6.8c12.2-4.4,24.5-9,38.7-15.1c7.4-3.3,14.3-6.4,21-9.7
	c9.1-4.2,18.2-8.9,28.9-14.5c6.8-3.6,13.6-7.4,18.7-10.5c8.1-4.4,16-9.3,23.6-14.5c1.7-0.9,3.4-1.9,5-3c9.7-6.2,19.1-12.7,28.2-19.7
	c2.4-1.5,4.7-3.2,7-4.9c9.5-6.8,18.6-14.1,27.5-21.6c0.8-0.7,1.6-1.3,2.3-2c9.6-8,18.9-16.4,27.2-24.4c0.3-0.3,0.6-0.6,0.9-0.9
	l0.2-0.2c4.9-4.3,9.5-8.8,13.9-13.4c25.4-25.4,48.4-52.9,69-82.3c8.1-11,16.2-23.3,24.9-37.7c3.6-6.1,7.2-12.3,10.5-18.2
	c5.6-9.8,10.8-19.7,15.3-29.2c3.2-6.3,6.1-12.5,9-19l1.7-3.7c2.3-5.1,4.5-10.1,6.5-14.9c5.5-12.8,10.4-25.9,14.6-39.1
	c2.4-6.7,4.4-13.3,6.5-19.9l0.1-0.5c5.8-18.7,10.6-37.6,14.3-56.8c2.2-9.3,3.8-18.8,5-27.4c1.2-8.6,2.5-17.4,3.7-27.4
	c1.1-9.1,1.9-18.2,2.4-26.6c0.5-5.7,0.7-11.3,1-17c0-0.1,0-2.6,0-2.7c0.2-8.1,0.5-16,0.5-24.1C1375.7,631.7,1376,623.6,1375.8,615.5
	z M1254.8,639.6l61.2-108.2c1.2,6.1,2.5,12.3,3.4,18.7c1.3,7.7,2.2,15.7,3.3,24.7c1,8.1,1.7,16.3,2.2,25c0.5,5.1,0.7,10.1,1,17.2
	c0.2,7.6,0.5,15,0.5,22.7c0,7.7-0.2,15-0.5,24.6c-0.2,5.1-0.5,10.1-0.9,15.7c-0.5,8.1-1.2,16.3-2.3,25.8c-0.9,7.8-1.8,15.7-3.3,24.1
	c-0.9,5.8-2.1,11.9-3.3,18L1254.8,639.6z M1206.9,286.4c5,6.6,9.9,13.2,14.8,20.2c7.2,10.1,13.9,20.7,20.2,31
	c3.4,5.7,6.7,11.4,10,17.2c5,8.8,9.7,17.7,14.3,27.4c2.8,5.6,5.4,11.1,8,16.9l1.7,3.8c2.1,4.6,4.1,9,6.2,14
	c5.2,12.3,9.5,23.9,13.4,36.1c1,2.8,1.8,5.7,2.8,8.5L1211.4,615H990.6l-62.6-110.7l-48.7-86.1l48.6-86.1l62.6-110.7h158.7
	c2,2,4,3.7,6.2,6C1174,245.9,1191.2,265.6,1206.9,286.4z M836,836.4H615.3l-62.6-110.7l-48.7-86.1l48.6-86.1l62.6-110.7H836
	l62.6,110.7l48.7,86.1l-48.6,86.1L836,836.4z M965.9,98.5c6.7,3,13.1,5.8,20.2,9.3c8.5,3.9,16.9,8.3,26.6,13.3
	c5.7,3,11.4,6,18.4,10.3c7,3.8,13.9,8,20.4,12.6c1,0.7,3.8,2.3,4.9,2.9c9,5.8,17.7,11.8,26.2,18.3c1,0.8,3.6,2.7,4.7,3.3
	c0.3,0.2,2.1,1.6,2.5,1.9c0.8,0.6,1.6,1.4,2.5,2H990.6l-46.7-82.8C951,92.2,958.2,95,965.9,98.5z M588,65.1
	c5.6-1.6,11.2-2.6,19.4-4.3c0.8-0.3,1.7-0.4,2.5-0.6c1-0.1,2-0.3,3-0.5c5.7-1.3,11.6-2.1,19.3-3.2c18.4-3,37-5,55.6-6.1
	c3-0.2,6.1-0.4,11.4-0.5c5.3-0.1,10.4-0.4,17.5-0.5c3-0.2,6.2-0.2,9-0.2s6,0,10.8,0.2c5.2,0,10.4,0,17.8,0.5c3.2,0,6.3,0.2,9.4,0.4
	c19.2,1.1,38.4,3.3,57.4,6.4c5.7,0.8,11.6,1.6,17.3,2.9c1,0.2,2,0.4,3,0.5c1.7,0.3,3.4,0.7,5,1.2c5.8,1.1,11.4,2.2,17,3.7l0.8,0.2
	c0.9,0.3,1.9,0.6,2.8,0.7c2.5,0.5,5,1.2,7.5,1.8l72.7,129l-20.2,35.8l-91,161H615.3l-91-161l-20.2-35.8l72.8-129
	c2.5-0.6,5-1.3,7.5-1.8c1-0.2,1.9-0.4,2.8-0.7L588,65.1z M365.3,167.2c1.1-0.6,2.2-1.3,3.2-2.1c8.5-6.5,17.2-12.5,27.9-19.3
	c1.1-0.5,2.2-1.2,3.2-1.8c7-4.9,14.3-9.4,21.9-13.5c5.5-3.5,11.2-6.5,18.1-10.1c8.5-4.4,16.9-8.8,25.9-12.9c6.6-3.3,13-6.1,21.3-9.8
	c6.5-2.8,13.5-5.3,20.3-7.9l-46.4,82.5H358.9c1.1-0.8,2.1-1.6,3.3-2.5L365.3,167.2z M156.3,452.3c3.6-11.5,7.9-23,13.3-35.7
	c1.9-4.6,4-9.1,6-13.7l1.7-3.8c2.5-5.8,5.2-11.3,8.3-17.6c4.3-9,9-17.9,14-26.8c3.2-5.7,6.5-11.4,9.7-16.8
	c6.5-10.6,13.2-21.2,20.5-31.4c4.8-6.9,9.6-13.5,14.7-20.3c15.6-20.7,32.7-40.4,51.2-58.7c2-1.9,4.2-4.1,6.3-6h158.7l62.5,110.7
	l48.7,86.1l-48.6,86.1L460.7,615H240l-86.9-153.7C154,458.5,155,455.6,156.3,452.3z M135.4,747.8c-1.2-6.1-2.5-12.3-3.4-18.7
	c-1.3-7.7-2.2-15.7-3.3-24.7c-0.9-8.1-1.7-16.3-2.2-25c-0.4-4.9-0.7-10.1-1-17.2c-0.2-7.5-0.5-14.9-0.5-22.6s0.2-15,0.5-24.6
	c0.2-5.1,0.5-10.2,0.9-15.8c0.5-8.1,1.2-16.3,2.3-25.8c0.9-7.7,1.8-15.7,3.3-24.1c0.9-5.7,2.1-11.9,3.3-18l61.2,108.3L135.4,747.8z
	 M231.7,975.2c-7.2-9.8-14.5-20.8-22.2-33.6c-3.4-5.7-6.8-11.4-10-17.2c-5-8.8-9.7-17.7-14.3-27.4c-2.8-5.6-5.4-11.1-8-16.9
	l-1.7-3.8c-2.1-4.6-4.1-9.1-6.2-14c-5.2-12.3-9.5-23.9-13.4-36.1c-1-2.8-1.9-5.7-2.8-8.5L240,664.2h220.8l62.5,110.7l48.7,86.1
	l-48.6,86.1l-62.6,110.7H302c-2-2-4-3.7-6.1-5.9C272.3,1028.2,250.8,1002.5,231.7,975.2L231.7,975.2z M485.5,1180.9
	c-6.7-3-13.1-5.8-20.3-9.3c-8.5-3.9-16.9-8.3-26.6-13.3c-5.7-3-11.4-6-18.4-10.3c-7-3.8-13.9-8-20.4-12.6c-1.1-0.7-3.8-2.3-5-2.9
	c-9-5.8-17.7-11.8-26.2-18.3c-1-0.7-3.7-2.7-4.8-3.3c-0.3-0.2-2.1-1.6-2.5-1.8c-0.8-0.6-1.6-1.4-2.5-2h101.7l46.7,82.7
	C500.5,1187,493.1,1184.2,485.5,1180.9z M863.3,1214.1c-5.6,1.6-11.2,2.6-19.4,4.3c-0.8,0.3-1.7,0.4-2.5,0.6c-1,0.1-2,0.3-3,0.5
	c-5.7,1.3-11.6,2.1-19.3,3.2c-18.4,3-37,5-55.6,6.1c-3,0.2-6.1,0.4-10.6,0.4c-18.6,1-37.1,1-55.7,0c-3.2,0-6.3-0.2-9.4-0.4
	c-19.2-1.1-38.4-3.3-57.4-6.4c-5.7-0.8-11.6-1.6-17.3-2.9c-1-0.2-2-0.4-3-0.5c-1.7-0.3-3.4-0.7-5-1.2c-5.8-1.1-11.4-2.2-17-3.7
	l-0.8-0.2c-0.9-0.3-1.9-0.6-2.9-0.7c-2.5-0.5-5-1.2-7.5-1.8l-72.8-129.1l20.2-35.8l91-161H836l91,161l20.2,35.8l-72.8,129
	c-2.5,0.6-5,1.3-7.5,1.8c-1,0.2-1.9,0.4-2.9,0.7L863.3,1214.1z M1085.8,1112.1c-1.1,0.6-2.1,1.3-3.1,2c-8.5,6.5-17.2,12.5-27.8,19.2
	c-1.1,0.6-2.3,1.2-3.3,1.9c-7,4.9-14.3,9.4-21.9,13.5c-5.5,3.5-11.2,6.5-18.1,10.1c-8.5,4.4-16.9,8.8-25.9,13
	c-6.6,3.2-13,6.1-21.3,9.8c-6.5,2.8-13.5,5.3-20.3,7.8l46.5-82.5h101.8c-1.1,0.8-2.1,1.6-3.3,2.5L1085.8,1112.1z M1295.1,827
	c-3.6,11.5-7.9,23-13.3,35.7c-1.9,4.6-4,9.1-6,13.7l-1.7,3.8c-2.5,5.8-5.1,11.3-8.3,17.6c-4.3,9-9,17.9-14,26.8
	c-3.1,5.7-6.5,11.4-9.8,17c-7.8,12.9-15,24-22.5,34.3c-19.1,27.3-40.5,52.8-64.1,76.5c-1.8,1.9-3.6,3.7-5.6,5.6H990.6l-62.6-110.7
	L879.4,861l48.6-86.1l62.6-110.7h220.7l86.7,153.4C1297.1,820.7,1296.2,823.6,1295.1,827L1295.1,827z"/>
</svg>
