<?xml version="1.0" encoding="utf-8"?>
<!-- Generator: Adobe Illustrator 24.0.1, SVG Export Plug-In . SVG Version: 6.00 Build 0)  -->
<svg version="1.1" id="Layer_3" xmlns="http://www.w3.org/2000/svg" xmlns:xlink="http://www.w3.org/1999/xlink" x="0px" y="0px"
	 viewBox="0 0 1451.3 1451.3" style="enable-background:new 0 0 1451.3 1451.3;" xml:space="preserve">
<style type="text/css">
	.st0{fill:#976947;}
	.st1{fill:#C18E59;}
	.st2{fill:#442518;}
</style>
<g>
	<path class="st0" d="M1100.2,522.5c45.6-75.4,70.2-167,70.2-261.2v-14.5c0-24,15.7-43.5,35.1-43.5s35.1,19.5,35.1,43.5v113
		c0,68.2-16.3,134.9-46.8,191.8"/>
	<path class="st1" d="M1037.3,899.8h-7.3l-118-48.8c-14.9-6.2-30.5-9.3-46.2-9.3h-23.1c-30.5,0-60.1,11.8-84.9,33.7l-87.7,77.6
		c-24.8,22-54.5,33.8-84.9,33.8v261.2l23.4,174.2H421.4v-58.1c0-32.1,21-58.1,46.8-58.1H515l-57.2-283.8
		c-8.4-41.7-28.2-78.6-55.9-104.4c-32.4-30.2-53.7-75.3-59.1-125.1l-38.4-357.5L83.1,366.8C48,356,23.4,316.8,23.4,272
		c0-54,35.3-97.8,78.9-97.8h85l23.4-87.1L374.5,29h23.4c51.7,0,93.6,52,93.6,116.1v87.1l42.1,83.6
		c47.1,93.5,127.2,153.8,215.8,162.6l395.1,39.2c31.7,3.1,61.5,20.2,84.1,48.1c22.8,28.3,36.6,65.8,38.9,105.7l13.5,233.8
		c4.2,72.3,25,141.7,60.1,199.7c11,18.1,20.6,37.4,28.7,57.7l58,143.7v116.1h-187.3v-58.1c0-32.1,21-58.1,46.8-58.1h23.4l-39-64.4
		c-20.4-33.8-48-60-79.6-75.7c-44.1-21.9-79.8-63.9-99.7-117.4L1037.3,899.8"/>
	<path class="st0" d="M433.1,348.3c32.3,0,58.5-32.5,58.5-72.6v-43.5v-87.1C491.6,81,449.7,29,397.9,29h-23.4v246.7
		C374.5,315.8,400.7,348.3,433.1,348.3z"/>
	<g>
		<path class="st2" d="M292.6,203.2c-19.4,0-35.1-19.5-35.1-43.5s15.8-43.5,35.1-43.5s35.1,19.5,35.1,43.5S312,203.2,292.6,203.2z"
			/>
	</g>
	<g>
		<path class="st0" d="M489.2,969.8l13.3-66.2c7.8-38.9,0.6-80.2-19.6-111.5l-38.8-60.2c-14.7-22.8-22.7-51.1-22.7-80.3V631
			c0-48.7-22.2-93.2-57.3-115c-17.1-10.6-35.1-14.6-52.5-13.3l31.2,290.2c5.4,49.8,26.7,94.9,59.1,125.1
			c27.8,25.8,47.5,62.7,55.9,104.4l2,9.8C473.5,1016.2,484,995.2,489.2,969.8L489.2,969.8z"/>
		<path class="st0" d="M622.6,612.5l15.8-29.4c10.6-19.7,28.4-31.6,47.5-31.6h109.8c27.2,0,50.7,23.8,56,57l0.6,3.4
			c7.1,43.9-20,84.8-56,84.8h-57.3c-8.9,0-17.6,2.6-25.6,7.5l-17.9,11.1c-32.7,20.3-72.1-2.2-81-46.2
			C610.8,649.6,613.7,629.1,622.6,612.5z"/>
		<path class="st0" d="M1270.3,1239.4c20.4-30.4,19.4-75.6-3.6-104.1l-69.7-86.4c-2.1-2.6-4-5.4-5.8-8.3l-33.7-55.8
			c-19.2-31.8-54.7-40.4-82.2-20l-10.9,8.1l28.2,75.8c19.9,53.5,55.6,95.5,99.7,117.4C1223.2,1181.4,1250,1206.8,1270.3,1239.4
			L1270.3,1239.4z"/>
	</g>
	<path d="M1448.9,1293.2l-58-143.7c-8.8-21.8-19.2-42.7-31-62.1c-32.5-53.7-51.6-117.4-55.5-184.3L1291,669.3
		c-2.7-46.8-18.9-90.9-45.7-124.1c-4.5-5.6-9.5-10.2-14.5-15c21.7-52.7,33.3-110.7,33.3-170.4V246.7c0-40-26.2-72.6-58.5-72.6
		s-58.5,32.6-58.5,72.6v14.5c0,78.6-19,156.4-53.5,222.2l-342.1-33.9c-80.9-8-154.8-63.7-197.8-149.1L515,223.9v-78.8
		C515,65.1,462.5,0,397.9,0h-23.4c-2.2,0-4.4,0.4-6.4,1.1L204.3,59.2c-7.4,2.6-13.3,9.6-15.8,18.7l-18.1,67.2h-68.1
		C45.9,145.1,0,202,0,272c0,58.3,31.8,108.9,77.5,123l205.7,63.8l36.3,337.9c6.2,57.2,31,109.9,68.3,144.5
		c23.4,21.8,40.2,53.1,47.3,88.3l49.9,247.7h-16.8c-38.7,0-70.2,39.1-70.2,87.1v58.1c0,16,10.5,29,23.4,29h187.3
		c6.9,0,13.4-3.7,17.9-10.3c4.4-6.5,6.4-15.1,5.2-23.5l-23.1-171.8v-232.1c27-4.6,52.6-17,75.1-36.9l87.6-77.6
		c21-18.5,45.6-28.3,71.3-28.3h23.1c13.2,0,26.3,2.6,38.8,7.8l116.9,48.3l49.9,134c22.5,60.5,62.4,107.4,112.2,132.1
		c27.7,13.7,51.7,36.6,69.6,66.1l13.3,22c-28.5,11.1-49.2,44.1-49.2,83.1v58.1c0,16,10.5,29,23.4,29h187.3c12.9,0,23.4-13,23.4-29
		v-116.1C1451.3,1301.7,1450.5,1297.2,1448.9,1293.2L1448.9,1293.2z M1193.8,261.2v-14.5c0-8,5.3-14.5,11.7-14.5s11.7,6.5,11.7,14.5
		v113.1c0,49.6-9.4,97.9-27.2,141.9c-13.9-6.6-28.4-11.4-43.5-12.9l-1-0.1C1176.8,419.4,1193.8,340.7,1193.8,261.2L1193.8,261.2z
		 M1404.5,1393.3h-140.5v-29c0-16,10.5-29,23.4-29h23.4c8.9,0,17-6.2,21-16.1c4-9.8,3.1-21.6-2.2-30.4l-39-64.4
		c-23-38.1-54-67.5-89.7-85.2c-38.7-19.2-69.6-55.6-87.1-102.6l-109.5-294.1l-42.5,24.3l32.7,87.7l-75.1-31.1
		c-17.3-7.1-35.3-10.8-53.6-10.8h-23.1c-35.6,0-69.6,13.5-98.5,39.2l-87.6,77.6c-14.5,12.8-30.8,21.1-47.9,25.2v-142h-46.8v435.4
		c0,1.6,0.1,3.2,0.3,4.8l18.8,140.3H444.8v-29c0-16,10.5-29,23.4-29H515c7.2,0,14-4.1,18.4-11.2c4.4-7.1,6-16.2,4.3-24.9
		l-57.2-283.8c-9.7-48-32.6-90.9-64.6-120.6c-27.2-25.3-45.4-63.9-50-105.7L331,464.4h66.9v-58.1h-90.8L88.8,338.7
		c-24.7-7.7-42-35.1-42-66.7c0-37.9,24.9-68.8,55.5-68.8h131.8v-58.1h-14.3l9.2-34.4l148.8-52.7h20.1c38.7,0,70.2,39.1,70.2,87.1
		v130.6c0,24-15.8,43.5-35.1,43.5c-19.4,0-35.1-19.5-35.1-43.5V145.1h-46.8v130.6c0,56,36.8,101.6,81.9,101.6
		c32.9,0,61.2-24.4,74.2-59.2l6.6,13.1C564.7,432,652.1,497.9,747.6,507.3l395.2,39.2c26.2,2.6,50.8,16.7,69.4,39.7
		c18.8,23.3,30.2,54.3,32.1,87.2l13.5,233.8c4.5,78.1,26.8,152.4,64.7,215c10.1,16.7,19,34.6,26.5,53.3l55.5,137.6V1393.3z"/>
	<path d="M292.6,116.1c-19.4,0-35.1,19.5-35.1,43.5s15.8,43.5,35.1,43.5s35.1-19.5,35.1-43.5S312,116.1,292.6,116.1z"/>
</g>
</svg>
