<?xml version="1.0" encoding="iso-8859-1"?>
<!-- Generator: Adobe Illustrator 19.0.0, SVG Export Plug-In . SVG Version: 6.00 Build 0)  -->
<svg version="1.1" id="Capa_1" xmlns="http://www.w3.org/2000/svg" xmlns:xlink="http://www.w3.org/1999/xlink" x="0px" y="0px"
	 viewBox="0 0 512 512" style="enable-background:new 0 0 512 512;" xml:space="preserve">
<g>
	<rect x="405.635" y="366.312" style="fill:#CCCCCC;" width="77.939" height="110.467"/>
	<rect x="28.426" y="365.772" style="fill:#CCCCCC;" width="78.705" height="111.567"/>
</g>
<g>
	<rect x="28.426" y="365.772" style="fill:#BCBBBB;" width="30.619" height="111.567"/>
	<rect x="408.275" y="365.772" style="fill:#BCBBBB;" width="30.619" height="111.567"/>
</g>
<rect x="159.47" y="219.123" style="fill:#EFEFEF;" width="193.062" height="68.394"/>
<rect x="159.47" y="219.123" style="fill:#DDDDDD;" width="30.002" height="68.394"/>
<path style="fill:#F94A46;" d="M309.587,19.42h-53.587v50.051h53.587c6.6,0,12.001-5.4,12.001-12.001v-26.05
	C321.587,24.821,316.187,19.42,309.587,19.42z"/>
<path style="fill:#EF3C3C;" d="M309.587,44.446h-53.587v25.026h53.587c6.6,0,12.001-5.4,12.001-12.001V32.445
	C321.587,39.045,316.187,44.446,309.587,44.446z"/>
<path style="fill:#666666;" d="M255.999,104.104c-4.142,0-7.5-3.357-7.5-7.5V7.5c0-4.143,3.358-7.5,7.5-7.5
	c4.142,0,7.5,3.357,7.5,7.5v89.103C263.5,100.746,260.143,104.104,255.999,104.104z"/>
<rect x="103.726" y="310.929" style="fill:#EFEFEF;" width="304.548" height="166.4"/>
<rect x="103.726" y="310.929" style="fill:#DDDDDD;" width="30.002" height="166.4"/>
<path style="fill:#EFEFEF;" d="M255.999,96.604c-53.312,0-96.531,44.218-96.531,97.531H352.53
	C352.53,140.822,309.313,96.604,255.999,96.604z"/>
<path style="fill:#DDDDDD;" d="M271,97.792c-58.619-9.345-111.532,37.026-111.532,96.343h30.002
	C189.471,145.925,224.813,105.155,271,97.792z"/>
<path style="fill:#EAE4D6;" d="M489.708,338.6c-9.24,0-71.156,0-81.436,0v29.583c10,0,72.315,0,81.436,0
	c8.169,0,14.791-6.622,14.791-14.791C504.5,345.223,497.877,338.6,489.708,338.6z"/>
<rect x="408.275" y="338.6" style="fill:#DDD3C0;" width="30.618" height="29.583"/>
<g>
	<path style="fill:#EAE4D6;" d="M22.292,338.6c6.831,0,70.311,0,81.436,0v29.583c-11.954,0-78.24,0-81.436,0
		c-8.168,0-14.792-6.622-14.792-14.791C7.5,345.223,14.123,338.6,22.292,338.6z"/>
	<path style="fill:#EAE4D6;" d="M371.157,207.926c0-8.168-6.622-14.791-14.791-14.791c-66.801,0-133.521,0-200.733,0
		c-8.17,0-14.791,6.622-14.791,14.791c0,8.17,6.622,14.792,14.791,14.792c33.722,0,177.965,0,200.733,0
		C364.535,222.717,371.157,216.095,371.157,207.926z"/>
</g>
<path style="fill:#DDD3C0;" d="M177.594,207.927c0-8.168,6.622-14.792,14.792-14.792c-7.752,0-28.019,0-36.752,0
	c-8.17,0-14.792,6.622-14.792,14.792c0,8.17,6.622,14.792,14.792,14.792c9.696,0,29.008,0,36.752,0
	C184.216,222.717,177.594,216.095,177.594,207.927z"/>
<path style="fill:#EAE4D6;" d="M427.745,299.137c0-8.168-6.622-14.791-14.792-14.791c-36.885,0-278.904,0-313.907,0
	c-8.169,0-14.791,6.622-14.791,14.791c0,8.169,6.622,14.792,14.791,14.792c71.245,0,239.115,0,313.907,0
	C421.122,313.928,427.745,307.306,427.745,299.137z"/>
<g>
	<path style="fill:#DDD3C0;" d="M121.007,299.137c0-8.168,6.622-14.792,14.792-14.792c-7.752,0-28.019,0-36.752,0
		c-8.169,0-14.792,6.622-14.792,14.792s6.622,14.792,14.792,14.792c9.696,0,29.008,0,36.752,0
		C127.63,313.928,121.007,307.306,121.007,299.137z"/>
	<path style="fill:#DDD3C0;" d="M44.253,353.391c0-8.168,6.622-14.792,14.792-14.792c-7.752,0-28.019,0-36.752,0
		c-8.169,0-14.792,6.622-14.792,14.792s6.622,14.792,14.792,14.792c9.696,0,29.008,0,36.752,0
		C50.875,368.183,44.253,361.56,44.253,353.391z"/>
</g>
<path style="fill:#EAE4D6;" d="M489.708,474.917c-89.29,0-378.374,0-467.416,0c-8.169,0-14.792,6.622-14.792,14.792l0,0
	c0,8.168,6.622,14.791,14.792,14.791c143.136,0,328.764,0,467.416,0c8.169,0,14.792-6.622,14.792-14.791l0,0
	C504.5,481.539,497.877,474.917,489.708,474.917z"/>
<path style="fill:#DDD3C0;" d="M118.728,489.708L118.728,489.708c0-8.169,6.622-14.792,14.792-14.792H22.292
	c-8.169,0-14.792,6.622-14.792,14.792l0,0c0,8.168,6.622,14.792,14.792,14.792H133.52
	C125.351,504.5,118.728,497.877,118.728,489.708z"/>
<path d="M201.997,268.064c4.142,0,7.5-3.357,7.5-7.5v-13.765c0-4.143-3.358-7.5-7.5-7.5c-4.142,0-7.5,3.357-7.5,7.5v13.765
	C194.497,264.706,197.855,268.064,201.997,268.064z"/>
<path d="M237.997,268.064c4.142,0,7.5-3.357,7.5-7.5v-13.765c0-4.143-3.358-7.5-7.5-7.5c-4.142,0-7.5,3.357-7.5,7.5v13.765
	C230.497,264.706,233.855,268.064,237.997,268.064z"/>
<path d="M309.999,268.064c4.143,0,7.5-3.357,7.5-7.5v-13.765c0-4.143-3.357-7.5-7.5-7.5s-7.5,3.357-7.5,7.5v13.765
	C302.498,264.706,305.857,268.064,309.999,268.064z"/>
<path d="M273.999,268.064c4.143,0,7.5-3.357,7.5-7.5v-13.765c0-4.143-3.357-7.5-7.5-7.5c-4.143,0-7.5,3.357-7.5,7.5v13.765
	C266.498,264.706,269.856,268.064,273.999,268.064z"/>
<path d="M437.572,411.049h18.815c4.143,0,7.5-3.357,7.5-7.5s-3.357-7.5-7.5-7.5h-18.815c-4.142,0-7.5,3.357-7.5,7.5
	S433.428,411.049,437.572,411.049z"/>
<path d="M437.572,447.05h18.815c4.143,0,7.5-3.357,7.5-7.5c0-4.143-3.357-7.5-7.5-7.5h-18.815c-4.142,0-7.5,3.357-7.5,7.5
	C430.071,443.693,433.428,447.05,437.572,447.05z"/>
<path d="M56.668,411.049h18.815c4.142,0,7.5-3.357,7.5-7.5s-3.358-7.5-7.5-7.5H56.668c-4.142,0-7.5,3.357-7.5,7.5
	S52.525,411.049,56.668,411.049z"/>
<path d="M56.668,447.05h18.815c4.142,0,7.5-3.357,7.5-7.5c0-4.143-3.358-7.5-7.5-7.5H56.668c-4.142,0-7.5,3.357-7.5,7.5
	C49.168,443.693,52.525,447.05,56.668,447.05z"/>
<path d="M219.999,455.743c4.142,0,7.5-3.357,7.5-7.5V343.903c0-4.143-3.358-7.5-7.5-7.5c-4.142,0-7.5,3.357-7.5,7.5v104.339
	C212.499,452.384,215.857,455.743,219.999,455.743z"/>
<path d="M183.998,455.743c4.142,0,7.5-3.357,7.5-7.5V343.903c0-4.143-3.358-7.5-7.5-7.5c-4.142,0-7.5,3.357-7.5,7.5v104.339
	C176.498,452.384,179.856,455.743,183.998,455.743z"/>
<path d="M147.998,455.743c4.142,0,7.5-3.357,7.5-7.5V343.903c0-4.143-3.358-7.5-7.5-7.5c-4.142,0-7.5,3.357-7.5,7.5v104.339
	C140.498,452.384,143.856,455.743,147.998,455.743z"/>
<path d="M364.001,455.743c4.143,0,7.5-3.357,7.5-7.5V343.903c0-4.143-3.357-7.5-7.5-7.5s-7.5,3.357-7.5,7.5v104.339
	C356.501,452.384,359.859,455.743,364.001,455.743z"/>
<path d="M328.001,455.743c4.143,0,7.5-3.357,7.5-7.5V343.903c0-4.143-3.357-7.5-7.5-7.5s-7.5,3.357-7.5,7.5v104.339
	C320.5,452.384,323.859,455.743,328.001,455.743z"/>
<path d="M292,455.743c4.143,0,7.5-3.357,7.5-7.5V343.903c0-4.143-3.357-7.5-7.5-7.5c-4.143,0-7.5,3.357-7.5,7.5v104.339
	C284.499,452.384,287.857,455.743,292,455.743z"/>
<path d="M255.999,455.743c4.143,0,7.5-3.357,7.5-7.5V343.903c0-4.143-3.357-7.5-7.5-7.5c-4.142,0-7.5,3.357-7.5,7.5v104.339
	C248.499,452.384,251.857,455.743,255.999,455.743z"/>
<path d="M491.075,467.462v-91.825C502.731,374.929,512,365.224,512,353.392c0-12.292-10.001-22.292-22.292-22.292h-73.935v-9.855
	c10.965-1.391,19.473-10.772,19.473-22.107c0-12.292-10.001-22.291-22.292-22.291h-52.922v-46.933
	c10.554-1.753,18.628-10.943,18.628-21.986c0-11.134-8.204-20.386-18.885-22.031c-1.255-18.249-7.242-35.73-17.521-50.939
	c-2.318-3.431-6.981-4.335-10.414-2.015c-3.432,2.318-4.334,6.981-2.015,10.414c8.546,12.647,13.631,27.133,14.894,42.28H167.282
	c5.72-68.26,83.605-104.465,139.452-65.661c3.401,2.362,8.076,1.521,10.439-1.88c2.363-3.401,1.523-8.075-1.88-10.439
	c-15.407-10.707-33.18-16.952-51.794-18.277V76.973h46.087c10.753,0,19.501-8.749,19.501-19.501V31.421
	c0-10.753-8.749-19.501-19.501-19.501h-46.087V7.5c0-4.143-3.357-7.5-7.5-7.5c-4.142,0-7.5,3.357-7.5,7.5
	c0,25.223,0,51.959,0,81.875c-51.484,3.686-92.716,45.001-96.275,96.519c-10.68,1.645-18.883,10.898-18.883,22.031
	c0,11.044,8.073,20.232,18.627,21.986v46.933h-52.92c-12.292,0-22.292,10-22.292,22.291c0,11.336,8.508,20.716,19.472,22.107v9.856
	H74.848c-4.142,0-7.5,3.357-7.5,7.5c0,4.143,3.358,7.5,7.5,7.5h21.379v14.581c-21.738,0-49.682,0-73.935,0
	c-4.02,0-7.291-3.271-7.291-7.29s3.27-7.29,7.291-7.29h17.554c4.142,0,7.5-3.357,7.5-7.5c0-4.143-3.358-7.5-7.5-7.5H22.292
	C10,331.1,0,341.1,0,353.391c0,11.833,9.269,21.536,20.925,22.245v91.825C9.269,468.17,0,477.875,0,489.708
	C0,501.999,10,512,22.292,512h368.478c4.143,0,7.5-3.357,7.5-7.5c0-4.143-3.357-7.5-7.5-7.5H22.292c-4.02,0-7.291-3.271-7.291-7.291
	s3.27-7.29,7.291-7.29c160.974,0,304.412,0,467.415,0c4.021,0,7.291,3.271,7.291,7.29c0,4.021-3.271,7.291-7.291,7.291h-63.935
	c-4.143,0-7.5,3.357-7.5,7.5c0,4.143,3.357,7.5,7.5,7.5h63.935C501.999,512,512,501.999,512,489.708
	C512,477.875,502.731,468.171,491.075,467.462z M263.5,26.921h46.087c2.439,0,4.5,2.061,4.5,4.5v26.051c0,2.439-2.061,4.5-4.5,4.5
	H263.5V26.921z M96.227,467.416H35.926v-91.734h60.301V467.416z M148.342,207.926c0-4.02,3.27-7.29,7.29-7.29
	c10.454,0,186.3,0,196.897,0h3.836c4.021,0,7.291,3.271,7.291,7.29c0,4.021-3.27,7.291-7.291,7.291c-10.454,0-186.3,0-196.897,0
	h-3.836C151.613,215.217,148.342,211.947,148.342,207.926z M345.03,230.218v46.627H166.969v-46.627L345.03,230.218L345.03,230.218z
	 M400.771,467.416H111.228c0-15.284,0-129.847,0-145.988h289.544C400.771,338.445,400.771,450.708,400.771,467.416z M99.047,306.428
	c-4.02,0-7.291-3.271-7.291-7.291s3.27-7.29,7.291-7.29c4.639,0,310.921,0,313.906,0c4.021,0,7.291,3.271,7.291,7.29
	c0,4.021-3.271,7.291-7.291,7.291C398.108,306.428,113.87,306.428,99.047,306.428z M476.074,467.416h-60.302v-91.734h60.302V467.416
	z M415.772,360.682V346.1h73.935c4.021,0,7.291,3.271,7.291,7.291s-3.271,7.29-7.291,7.29
	C465.451,360.682,437.508,360.682,415.772,360.682z"/>
<g>
</g>
<g>
</g>
<g>
</g>
<g>
</g>
<g>
</g>
<g>
</g>
<g>
</g>
<g>
</g>
<g>
</g>
<g>
</g>
<g>
</g>
<g>
</g>
<g>
</g>
<g>
</g>
<g>
</g>
</svg>
