<?xml version="1.0" encoding="utf-8"?>
<!-- Generator: Adobe Illustrator 24.0.1, SVG Export Plug-In . SVG Version: 6.00 Build 0)  -->
<svg version="1.1" id="Layer_1" xmlns="http://www.w3.org/2000/svg" xmlns:xlink="http://www.w3.org/1999/xlink" x="0px" y="0px"
	 viewBox="0 0 512 512" style="enable-background:new 0 0 512 512;" xml:space="preserve">
<style type="text/css">
	.st0{fill:url(#SVGID_1_);}
	.st1{fill:url(#SVGID_2_);}
	.st2{fill:url(#SVGID_3_);}
	.st3{fill:url(#SVGID_4_);}
	.st4{fill:url(#SVGID_5_);}
	.st5{fill:url(#SVGID_6_);}
	.st6{fill:url(#SVGID_7_);}
	.st7{fill:url(#SVGID_8_);}
	.st8{fill:url(#SVGID_9_);}
	.st9{fill:url(#SVGID_10_);}
	.st10{fill:url(#SVGID_11_);}
	.st11{fill:url(#SVGID_12_);}
	.st12{fill:url(#SVGID_13_);}
	.st13{fill:url(#SVGID_14_);}
	.st14{fill:url(#SVGID_15_);}
	.st15{fill:url(#SVGID_16_);}
	.st16{fill:url(#SVGID_17_);}
	.st17{fill:url(#SVGID_18_);}
	.st18{fill:url(#SVGID_19_);}
	.st19{fill:url(#SVGID_20_);}
	.st20{fill:url(#SVGID_21_);}
	.st21{fill:url(#SVGID_22_);}
	.st22{fill:url(#SVGID_23_);}
	.st23{fill:url(#SVGID_24_);}
	.st24{fill:url(#SVGID_25_);}
	.st25{fill:url(#SVGID_26_);}
	.st26{fill:url(#SVGID_27_);}
	.st27{fill:url(#SVGID_28_);}
	.st28{fill:url(#SVGID_29_);}
	.st29{fill:url(#SVGID_30_);}
	.st30{fill:url(#SVGID_31_);}
	.st31{fill:url(#SVGID_32_);}
	.st32{fill:url(#SVGID_33_);}
	.st33{fill:url(#SVGID_34_);}
	.st34{fill:url(#SVGID_35_);}
	.st35{fill:url(#SVGID_36_);}
	.st36{fill:url(#SVGID_37_);}
	.st37{fill:url(#SVGID_38_);}
	.st38{fill:url(#SVGID_39_);}
	.st39{fill:url(#SVGID_40_);}
	.st40{fill:url(#SVGID_41_);}
</style>
<linearGradient id="SVGID_1_" gradientUnits="userSpaceOnUse" x1="52.8947" y1="182.6664" x2="313.8008" y2="182.6664" gradientTransform="matrix(1.0039 0 0 1.0039 -0.4392 -48.0993)">
	<stop  offset="0" style="stop-color:#E4F2FF"/>
	<stop  offset="1" style="stop-color:#B2CBFF"/>
</linearGradient>
<path class="st0" d="M314.6,121.1c0-66.4-58.6-120.2-131-120.2s-131,53.8-131,120.2v28.4c0,66.4,58.6,120.2,131,120.2
	s131-53.8,131-120.2C314.6,149.4,314.6,121.2,314.6,121.1L314.6,121.1z"/>
<linearGradient id="SVGID_2_" gradientUnits="userSpaceOnUse" x1="183.3472" y1="256.7336" x2="183.3472" y2="357.1735" gradientTransform="matrix(1.0039 0 0 1.0039 -0.4392 -48.0993)">
	<stop  offset="0" style="stop-color:#3F3CED;stop-opacity:0"/>
	<stop  offset="0.2796" style="stop-color:#3C3DE4;stop-opacity:0.28"/>
	<stop  offset="0.7305" style="stop-color:#3541CC;stop-opacity:0.731"/>
	<stop  offset="1" style="stop-color:#2F43BB"/>
</linearGradient>
<path class="st1" d="M291.5,52.9c-23.6-31.4-63.1-52-107.9-52s-84.2,20.6-107.9,52v164.8c23.6,31.4,63.1,52,107.9,52
	s84.2-20.6,107.9-52L291.5,52.9z"/>
<linearGradient id="SVGID_3_" gradientUnits="userSpaceOnUse" x1="276.9637" y1="235.7706" x2="301.5952" y2="256.9149" gradientTransform="matrix(1.0039 0 0 1.0039 -0.4392 -48.0993)">
	<stop  offset="0" style="stop-color:#00ADFB"/>
	<stop  offset="1" style="stop-color:#3F3CED"/>
</linearGradient>
<path class="st2" d="M272.3,237.9c15.8-13.3,28-30.2,35.1-49.2v-28.4l-35.1,49.2V237.9z"/>
<linearGradient id="SVGID_4_" gradientUnits="userSpaceOnUse" x1="183.3477" y1="269.8108" x2="183.3477" y2="348.2952" gradientTransform="matrix(1.0039 0 0 1.0039 -0.4392 -48.0993)">
	<stop  offset="0" style="stop-color:#3F3CED;stop-opacity:0"/>
	<stop  offset="0.2796" style="stop-color:#3C3DE4;stop-opacity:0.28"/>
	<stop  offset="0.7305" style="stop-color:#3541CC;stop-opacity:0.731"/>
	<stop  offset="1" style="stop-color:#2F43BB"/>
</linearGradient>
<path class="st3" d="M106.8,246.8c21.6,14.4,48.1,22.8,76.8,22.8s55.2-8.5,76.8-22.8V23.7C238.9,9.4,212.3,0.9,183.6,0.9
	s-55.2,8.5-76.8,22.8L106.8,246.8z"/>
<linearGradient id="SVGID_5_" gradientUnits="userSpaceOnUse" x1="202.049" y1="270.5653" x2="210.9361" y2="312.3358" gradientTransform="matrix(1.0039 0 0 1.0039 -0.4392 -48.0993)">
	<stop  offset="0" style="stop-color:#00ADFB"/>
	<stop  offset="1" style="stop-color:#3F3CED"/>
</linearGradient>
<path class="st4" d="M153.9,266.6c9.6,2,19.5,3.1,29.8,3.1c10.2,0,20.2-1.1,29.8-3.1V4c-9.6-2-19.5-3.1-29.8-3.1
	c-10.2,0-20.2,1.1-29.8,3.1V266.6z"/>
<linearGradient id="SVGID_6_" gradientUnits="userSpaceOnUse" x1="124.2981" y1="106.9426" x2="322.2059" y2="313.3088" gradientTransform="matrix(1.0039 0 0 1.0039 -0.4392 -48.0993)">
	<stop  offset="0" style="stop-color:#E4F2FF"/>
	<stop  offset="1" style="stop-color:#B2CBFF"/>
</linearGradient>
<ellipse class="st5" cx="183.6" cy="121.1" rx="131" ry="120.2"/>
<linearGradient id="SVGID_7_" gradientUnits="userSpaceOnUse" x1="152.4541" y1="107.8921" x2="234.3607" y2="268.6132" gradientTransform="matrix(1.0039 0 0 1.0039 -0.4392 -48.0993)">
	<stop  offset="0" style="stop-color:#00ADFB"/>
	<stop  offset="1" style="stop-color:#3F3CED"/>
</linearGradient>
<path class="st6" d="M153.9,4v59.4L93.1,34.2C77.4,48,65.4,65.4,58.7,84.9l65,31.1l-63.9,44.3c7.2,19,19.3,35.8,35.1,49.2l58.9-40.9
	v69.5c9.6,2,19.5,3.1,29.8,3.1c10.2,0,20.2-1.1,29.8-3.1v-69.5l58.9,40.9c15.8-13.3,28-30.2,35.1-49.2L243.6,116l65-31.1
	c-6.7-19.5-18.7-36.9-34.4-50.7l-60.8,29.2V4c0,0,0,0,0,0c-1.2-0.3-2.4-0.5-3.6-0.7c-7.7-1.4-17.2-2.6-28.2-2.4
	C170.8,1,161.4,2.4,153.9,4L153.9,4z"/>
<linearGradient id="SVGID_8_" gradientUnits="userSpaceOnUse" x1="133.8709" y1="104.771" x2="245.6806" y2="248.8245" gradientTransform="matrix(1.0039 0 0 1.0039 -0.4392 -48.0993)">
	<stop  offset="0" style="stop-color:#00ADFB"/>
	<stop  offset="1" style="stop-color:#3F3CED"/>
</linearGradient>
<ellipse class="st7" cx="183.6" cy="121.1" rx="95" ry="87.2"/>
<linearGradient id="SVGID_9_" gradientUnits="userSpaceOnUse" x1="219.9115" y1="206.0938" x2="66.7182" y2="48.6453" gradientTransform="matrix(1.0039 0 0 1.0039 -0.4392 -48.0993)">
	<stop  offset="0" style="stop-color:#00ADFB;stop-opacity:0"/>
	<stop  offset="1" style="stop-color:#18CEFB"/>
</linearGradient>
<path class="st8" d="M264,39.1l-50.6,24.3V14.2c-9.5-2.2-19.5-3.4-29.8-3.4c-10.3,0-20.2,1.2-29.8,3.4v49.2l-50.6-24.3
	C87.1,52.5,74.9,69.9,68.5,89.6l55.2,26.5l-54.7,38c6.6,19.3,18.8,36.3,34.8,49.4l50.2-34.8v59.3c9.5,2.2,19.5,3.4,29.8,3.4
	c10.3,0,20.2-1.2,29.8-3.4v-59.3l50.2,34.8c16-13.1,28.2-30.1,34.8-49.4l-54.7-38l55.2-26.5C292.4,69.9,280.2,52.5,264,39.1
	L264,39.1z"/>
<linearGradient id="SVGID_10_" gradientUnits="userSpaceOnUse" x1="139.0265" y1="118.8082" x2="237.6254" y2="229.3903" gradientTransform="matrix(1.0039 0 0 1.0039 -0.4392 -48.0993)">
	<stop  offset="0" style="stop-color:#E4F2FF"/>
	<stop  offset="1" style="stop-color:#B2CBFF"/>
</linearGradient>
<ellipse class="st9" cx="183.6" cy="121.1" rx="84.4" ry="77.4"/>
<linearGradient id="SVGID_11_" gradientUnits="userSpaceOnUse" x1="63.938" y1="227.3517" x2="93.9594" y2="274.2606" gradientTransform="matrix(1.0039 0 0 1.0039 -0.4392 -48.0993)">
	<stop  offset="0" style="stop-color:#00ADFB"/>
	<stop  offset="1" style="stop-color:#3F3CED"/>
</linearGradient>
<path class="st10" d="M59.8,188.8c7.2,19,19.3,35.8,35.1,49.2v-28.4l-35.1-49.2L59.8,188.8z"/>
<linearGradient id="SVGID_12_" gradientUnits="userSpaceOnUse" x1="143.6938" y1="150.8389" x2="179.4927" y2="233.6579" gradientTransform="matrix(1.0039 0 0 1.0039 -0.4392 -48.0993)">
	<stop  offset="0" style="stop-color:#00ADFB"/>
	<stop  offset="1" style="stop-color:#3F3CED"/>
</linearGradient>
<path class="st11" d="M127.9,157.1v-11.2c0-3.3,1.2-6.6,3.6-9.9c2.4-3.3,5.3-6.3,8.7-8.9l10.3-7.9c3.5-2.6,6.5-5.4,9-8.2
	c2.5-2.9,3.7-5.6,3.7-8.3c0-2.2-0.7-4.1-2.1-5.7c-1.4-1.7-3.6-2.5-6.5-2.5c-2.5,0-4.5,0.7-6.1,2.1c-1.6,1.4-2.4,3.7-2.4,6.8
	c0,1.8-0.8,3.4-2.5,4.8c-1.7,1.3-3.8,2-6.6,2c-5.1,0-7.7-3.1-7.7-9.3c0-6.6,2.5-12,7.5-16c5-4,10.9-6,17.6-6c7,0,13,2.1,18.3,6.3
	c5.2,4.2,7.9,9.8,7.9,17c0,4.6-1.2,9-3.6,13.1c-2.4,4.1-5.3,7.5-8.6,10.3c-3.4,2.8-6.8,5.3-10.2,7.6c-3.4,2.3-6.3,4.6-8.7,6.8
	c-2.4,2.2-3.6,4.2-3.6,6.1v1h29.5c1.4,0,2.7,0.8,3.7,2.3c1,1.5,1.6,3.3,1.6,5.4c0,2.1-0.5,3.9-1.6,5.5c-1,1.6-2.3,2.4-3.7,2.4h-39.8
	c-1.7,0-3.4-0.5-5.1-1.6C128.8,159.9,127.9,158.6,127.9,157.1L127.9,157.1z"/>
<linearGradient id="SVGID_13_" gradientUnits="userSpaceOnUse" x1="194.7741" y1="128.2665" x2="230.5819" y2="211.106" gradientTransform="matrix(1.0039 0 0 1.0039 -0.4392 -48.0993)">
	<stop  offset="0" style="stop-color:#00ADFB"/>
	<stop  offset="1" style="stop-color:#3F3CED"/>
</linearGradient>
<path class="st12" d="M184.6,142c0-3,0.7-5,2.2-6.2c1.5-1.1,3.6-1.7,6.5-1.7c3.5,0,5.8,0.6,7,1.7c1.2,1.1,1.7,2.8,1.7,4.9
	c0,2.2,0.9,3.9,2.7,5.2c1.8,1.2,4.1,1.8,7,1.8c6.8,0,10.2-3.6,10.2-10.8v-2.2c0-3.7-0.9-6.6-2.6-8.4c-1.8-1.9-4.2-2.8-7.3-2.8h-17
	c-2.5,0-4.2-0.6-5.2-1.8c-1-1.2-1.5-2.9-1.5-5.2c0-0.5,0.1-1.6,0.2-3.3l3-28.9c0.4-3.7,1.4-5.5,3.1-5.5h35.6c1.6,0,2.8,0.8,3.7,2.3
	c0.9,1.5,1.3,3.4,1.3,5.5c0,2.1-0.4,4-1.3,5.5c-0.9,1.5-2.1,2.3-3.7,2.3h-24.5l-1.1,15.4h7.3c8.3,0,15,2,19.9,6c5,4,7.4,10.3,7.4,19
	v2.2c0,9-2.5,15.7-7.5,19.9c-5,4.3-11.5,6.4-19.7,6.4c-8.6,0-15.3-2.1-20.2-6.3C187,152.8,184.6,147.8,184.6,142L184.6,142z"/>
<linearGradient id="SVGID_14_" gradientUnits="userSpaceOnUse" x1="183.0031" y1="168.0147" x2="73.9687" y2="9.4193" gradientTransform="matrix(1.0039 0 0 1.0039 -0.4392 -48.0993)">
	<stop  offset="0" style="stop-color:#FFFFFF;stop-opacity:0"/>
	<stop  offset="1" style="stop-color:#FFFFFF"/>
</linearGradient>
<ellipse class="st13" cx="183.6" cy="121.1" rx="120.2" ry="110.3"/>
<linearGradient id="SVGID_15_" gradientUnits="userSpaceOnUse" x1="248.653" y1="346.6452" x2="509.5591" y2="346.6452" gradientTransform="matrix(1.0039 0 0 1.0039 -0.4392 -48.0993)">
	<stop  offset="0" style="stop-color:#E4F2FF"/>
	<stop  offset="1" style="stop-color:#B2CBFF"/>
</linearGradient>
<path class="st14" d="M511.1,285.7c0-66.4-58.6-120.2-131-120.2s-131,53.8-131,120.2v28.4c0,66.4,58.6,120.2,131,120.2
	s131-53.8,131-120.2C511.1,314,511.1,285.8,511.1,285.7z"/>
<linearGradient id="SVGID_16_" gradientUnits="userSpaceOnUse" x1="379.106" y1="420.7124" x2="379.106" y2="521.1523" gradientTransform="matrix(1.0039 0 0 1.0039 -0.4392 -48.0993)">
	<stop  offset="0" style="stop-color:#3F3CED;stop-opacity:0"/>
	<stop  offset="0.2796" style="stop-color:#3C3DE4;stop-opacity:0.28"/>
	<stop  offset="0.7305" style="stop-color:#3541CC;stop-opacity:0.731"/>
	<stop  offset="1" style="stop-color:#2F43BB"/>
</linearGradient>
<path class="st15" d="M488,217.5c-23.6-31.4-63.1-52-107.9-52s-84.2,20.6-107.9,52v164.8c23.6,31.4,63.1,52,107.9,52
	s84.2-20.6,107.9-52V217.5z"/>
<linearGradient id="SVGID_17_" gradientUnits="userSpaceOnUse" x1="472.7228" y1="399.7506" x2="497.3543" y2="420.894" gradientTransform="matrix(1.0039 0 0 1.0039 -0.4392 -48.0993)">
	<stop  offset="0" style="stop-color:#FFD945"/>
	<stop  offset="0.3043" style="stop-color:#FFCD3E"/>
	<stop  offset="0.8558" style="stop-color:#FFAD2B"/>
	<stop  offset="1" style="stop-color:#FFA325"/>
</linearGradient>
<path class="st16" d="M468.8,402.5c15.8-13.3,28-30.2,35.1-49.2V325l-35.1,49.2V402.5z"/>
<linearGradient id="SVGID_18_" gradientUnits="userSpaceOnUse" x1="379.107" y1="442.5544" x2="379.107" y2="521.0388" gradientTransform="matrix(1.0039 0 0 1.0039 -0.4392 -48.0993)">
	<stop  offset="0" style="stop-color:#3F3CED;stop-opacity:0"/>
	<stop  offset="0.2796" style="stop-color:#3C3DE4;stop-opacity:0.28"/>
	<stop  offset="0.7305" style="stop-color:#3541CC;stop-opacity:0.731"/>
	<stop  offset="1" style="stop-color:#2F43BB"/>
</linearGradient>
<path class="st17" d="M303.3,411.5c21.6,14.4,48.1,22.8,76.8,22.8s55.2-8.5,76.8-22.8V188.4c-21.6-14.4-48.1-22.8-76.8-22.8
	s-55.2,8.5-76.8,22.8V411.5z"/>
<linearGradient id="SVGID_19_" gradientUnits="userSpaceOnUse" x1="397.8103" y1="434.5435" x2="406.6984" y2="476.314" gradientTransform="matrix(1.0039 0 0 1.0039 -0.4392 -48.0993)">
	<stop  offset="0" style="stop-color:#FFD945"/>
	<stop  offset="0.3043" style="stop-color:#FFCD3E"/>
	<stop  offset="0.8558" style="stop-color:#FFAD2B"/>
	<stop  offset="1" style="stop-color:#FFA325"/>
</linearGradient>
<path class="st18" d="M350.4,431.2c9.6,2,19.5,3.1,29.8,3.1c10.2,0,20.2-1.1,29.8-3.1V168.6c-9.6-2-19.5-3.1-29.8-3.1
	c-10.2,0-20.2,1.1-29.8,3.1V431.2z"/>
<linearGradient id="SVGID_20_" gradientUnits="userSpaceOnUse" x1="320.0566" y1="270.9222" x2="517.9654" y2="477.2874" gradientTransform="matrix(1.0039 0 0 1.0039 -0.4392 -48.0993)">
	<stop  offset="0" style="stop-color:#E4F2FF"/>
	<stop  offset="1" style="stop-color:#B2CBFF"/>
</linearGradient>
<ellipse class="st19" cx="380.2" cy="285.7" rx="131" ry="120.2"/>
<linearGradient id="SVGID_21_" gradientUnits="userSpaceOnUse" x1="348.2122" y1="271.872" x2="430.1178" y2="432.5931" gradientTransform="matrix(1.0039 0 0 1.0039 -0.4392 -48.0993)">
	<stop  offset="0" style="stop-color:#FFD945"/>
	<stop  offset="0.3043" style="stop-color:#FFCD3E"/>
	<stop  offset="0.8558" style="stop-color:#FFAD2B"/>
	<stop  offset="1" style="stop-color:#FFA325"/>
</linearGradient>
<path class="st20" d="M350.4,168.6L350.4,168.6l0,59.4l-60.8-29.2c-15.7,13.8-27.7,31.2-34.4,50.7l65,31.1L256.3,325
	c7.2,19,19.3,35.8,35.1,49.2l58.9-40.9v69.5c9.6,2,19.5,3.1,29.8,3.1c10.2,0,20.2-1.1,29.8-3.1v-69.5l58.9,40.9
	c15.8-13.3,28-30.2,35.1-49.2l-63.9-44.3l65-31.1c-6.7-19.5-18.7-36.9-34.4-50.7L409.9,228v-59.4h0c-8.4-1.8-19.2-3.3-31.6-3.1
	C367.5,165.7,358.1,167,350.4,168.6L350.4,168.6z"/>
<linearGradient id="SVGID_22_" gradientUnits="userSpaceOnUse" x1="329.6292" y1="268.7509" x2="441.4399" y2="412.8033" gradientTransform="matrix(1.0039 0 0 1.0039 -0.4392 -48.0993)">
	<stop  offset="0" style="stop-color:#FFD945"/>
	<stop  offset="0.3043" style="stop-color:#FFCD3E"/>
	<stop  offset="0.8558" style="stop-color:#FFAD2B"/>
	<stop  offset="1" style="stop-color:#FFA325"/>
</linearGradient>
<ellipse class="st21" cx="380.2" cy="285.7" rx="95" ry="87.2"/>
<linearGradient id="SVGID_23_" gradientUnits="userSpaceOnUse" x1="415.6696" y1="370.0738" x2="262.4763" y2="212.6254" gradientTransform="matrix(1.0039 0 0 1.0039 -0.4392 -48.0993)">
	<stop  offset="0" style="stop-color:#FFD945;stop-opacity:0"/>
	<stop  offset="1" style="stop-color:#FBED21"/>
</linearGradient>
<path class="st22" d="M460.5,203.7L409.9,228v-49.2c-9.5-2.2-19.5-3.4-29.8-3.4s-20.2,1.2-29.8,3.4V228l-50.6-24.3
	c-16.2,13.4-28.4,30.8-34.8,50.5l55.2,26.5l-54.7,38c6.6,19.3,18.8,36.3,34.8,49.4l50.2-34.8v59.3c9.5,2.2,19.5,3.4,29.8,3.4
	s20.2-1.2,29.8-3.4v-59.3l50.2,34.8c16-13.1,28.2-30.1,34.8-49.4l-54.7-38l55.2-26.5C488.9,234.5,476.7,217.1,460.5,203.7
	L460.5,203.7z"/>
<linearGradient id="SVGID_24_" gradientUnits="userSpaceOnUse" x1="334.785" y1="282.7868" x2="433.3839" y2="393.3699" gradientTransform="matrix(1.0039 0 0 1.0039 -0.4392 -48.0993)">
	<stop  offset="0" style="stop-color:#E4F2FF"/>
	<stop  offset="1" style="stop-color:#B2CBFF"/>
</linearGradient>
<ellipse class="st23" cx="380.2" cy="285.7" rx="84.4" ry="77.4"/>
<linearGradient id="SVGID_25_" gradientUnits="userSpaceOnUse" x1="259.6974" y1="391.3316" x2="289.7177" y2="438.2394" gradientTransform="matrix(1.0039 0 0 1.0039 -0.4392 -48.0993)">
	<stop  offset="0" style="stop-color:#FFD945"/>
	<stop  offset="0.3043" style="stop-color:#FFCD3E"/>
	<stop  offset="0.8558" style="stop-color:#FFAD2B"/>
	<stop  offset="1" style="stop-color:#FFA325"/>
</linearGradient>
<path class="st24" d="M256.3,353.4c7.2,19,19.3,35.8,35.1,49.2v-28.4L256.3,325V353.4z"/>
<linearGradient id="SVGID_26_" gradientUnits="userSpaceOnUse" x1="362.3293" y1="292.2466" x2="398.1371" y2="375.0851" gradientTransform="matrix(1.0039 0 0 1.0039 -0.4392 -48.0993)">
	<stop  offset="0" style="stop-color:#FFD945"/>
	<stop  offset="0.3043" style="stop-color:#FFCD3E"/>
	<stop  offset="0.8558" style="stop-color:#FFAD2B"/>
	<stop  offset="1" style="stop-color:#FFA325"/>
</linearGradient>
<path class="st25" d="M352.8,306.6c0-3,0.7-5,2.2-6.2c1.5-1.1,3.6-1.7,6.5-1.7c3.5,0,5.8,0.6,7,1.7c1.2,1.1,1.7,2.8,1.7,4.9
	c0,2.2,0.9,3.9,2.7,5.2c1.8,1.2,4.1,1.8,7,1.8c6.8,0,10.2-3.6,10.2-10.8v-2.2c0-3.7-0.9-6.6-2.6-8.4c-1.8-1.9-4.2-2.8-7.3-2.8h-17
	c-2.5,0-4.2-0.6-5.2-1.8c-1-1.2-1.5-2.9-1.5-5.2c0-0.5,0.1-1.6,0.2-3.3l3-28.9c0.4-3.7,1.4-5.5,3.1-5.5h35.6c1.6,0,2.8,0.8,3.7,2.3
	c0.9,1.5,1.3,3.4,1.3,5.5c0,2.1-0.4,4-1.3,5.5c-0.9,1.5-2.1,2.3-3.7,2.3H374l-1.1,15.4h7.3c8.3,0,15,2,19.9,6c5,4,7.4,10.3,7.4,19
	v2.2c0,9-2.5,15.7-7.5,19.9c-5,4.3-11.5,6.4-19.7,6.4c-8.6,0-15.3-2.1-20.2-6.3C355.2,317.4,352.8,312.4,352.8,306.6L352.8,306.6z"
	/>
<linearGradient id="SVGID_27_" gradientUnits="userSpaceOnUse" x1="378.7614" y1="331.9935" x2="269.728" y2="173.3991" gradientTransform="matrix(1.0039 0 0 1.0039 -0.4392 -48.0993)">
	<stop  offset="0" style="stop-color:#FFFFFF;stop-opacity:0"/>
	<stop  offset="1" style="stop-color:#FFFFFF"/>
</linearGradient>
<ellipse class="st26" cx="380.2" cy="285.7" rx="120.2" ry="110.3"/>
<linearGradient id="SVGID_28_" gradientUnits="userSpaceOnUse" x1="1.316" y1="423.157" x2="262.2221" y2="423.157" gradientTransform="matrix(1.0039 0 0 1.0039 -0.4392 -48.0993)">
	<stop  offset="0" style="stop-color:#E4F2FF"/>
	<stop  offset="1" style="stop-color:#B2CBFF"/>
</linearGradient>
<path class="st27" d="M262.8,362.5c0-66.4-58.6-120.2-131-120.2s-131,53.8-131,120.2v28.4c0,66.4,58.6,120.2,131,120.2
	s131-53.8,131-120.2C262.8,390.8,262.8,362.6,262.8,362.5z"/>
<linearGradient id="SVGID_29_" gradientUnits="userSpaceOnUse" x1="131.769" y1="497.2242" x2="131.769" y2="597.6641" gradientTransform="matrix(1.0039 0 0 1.0039 -0.4392 -48.0993)">
	<stop  offset="0" style="stop-color:#3F3CED;stop-opacity:0"/>
	<stop  offset="0.2796" style="stop-color:#3C3DE4;stop-opacity:0.28"/>
	<stop  offset="0.7305" style="stop-color:#3541CC;stop-opacity:0.731"/>
	<stop  offset="1" style="stop-color:#2F43BB"/>
</linearGradient>
<path class="st28" d="M239.7,294.3c-23.6-31.4-63.1-52-107.9-52s-84.2,20.6-107.9,52v164.8c23.6,31.4,63.1,52,107.9,52
	s84.2-20.6,107.9-52V294.3z"/>
<linearGradient id="SVGID_30_" gradientUnits="userSpaceOnUse" x1="225.385" y1="476.2612" x2="250.0165" y2="497.4055" gradientTransform="matrix(1.0039 0 0 1.0039 -0.4392 -48.0993)">
	<stop  offset="0" style="stop-color:#FF7044"/>
	<stop  offset="1" style="stop-color:#F82814"/>
</linearGradient>
<path class="st29" d="M220.5,479.3c15.8-13.3,28-30.2,35.1-49.2v-28.4l-35.1,49.2L220.5,479.3z"/>
<linearGradient id="SVGID_31_" gradientUnits="userSpaceOnUse" x1="131.769" y1="510.3024" x2="131.769" y2="588.7869" gradientTransform="matrix(1.0039 0 0 1.0039 -0.4392 -48.0993)">
	<stop  offset="0" style="stop-color:#3F3CED;stop-opacity:0"/>
	<stop  offset="0.2796" style="stop-color:#3C3DE4;stop-opacity:0.28"/>
	<stop  offset="0.7305" style="stop-color:#3541CC;stop-opacity:0.731"/>
	<stop  offset="1" style="stop-color:#2F43BB"/>
</linearGradient>
<path class="st30" d="M55,488.3c21.6,14.4,48.1,22.8,76.8,22.8s55.2-8.5,76.8-22.8V265.2c-21.6-14.4-48.1-22.8-76.8-22.8
	s-55.2,8.5-76.8,22.8L55,488.3z"/>
<linearGradient id="SVGID_32_" gradientUnits="userSpaceOnUse" x1="150.4729" y1="511.0562" x2="159.3609" y2="552.8256" gradientTransform="matrix(1.0039 0 0 1.0039 -0.4392 -48.0993)">
	<stop  offset="0" style="stop-color:#FF7044"/>
	<stop  offset="1" style="stop-color:#F82814"/>
</linearGradient>
<path class="st31" d="M102.1,508c9.6,2,19.5,3.1,29.8,3.1c10.2,0,20.2-1.1,29.8-3.1V245.4c-9.6-2-19.5-3.1-29.8-3.1
	c-10.2,0-20.2,1.1-29.8,3.1L102.1,508z"/>
<linearGradient id="SVGID_33_" gradientUnits="userSpaceOnUse" x1="72.7194" y1="347.4332" x2="270.6272" y2="553.7995" gradientTransform="matrix(1.0039 0 0 1.0039 -0.4392 -48.0993)">
	<stop  offset="0" style="stop-color:#E4F2FF"/>
	<stop  offset="1" style="stop-color:#B2CBFF"/>
</linearGradient>
<ellipse class="st32" cx="131.8" cy="362.5" rx="131" ry="120.2"/>
<linearGradient id="SVGID_34_" gradientUnits="userSpaceOnUse" x1="100.8764" y1="348.3827" x2="182.7821" y2="509.1048" gradientTransform="matrix(1.0039 0 0 1.0039 -0.4392 -48.0993)">
	<stop  offset="0" style="stop-color:#FF7044"/>
	<stop  offset="1" style="stop-color:#F82814"/>
</linearGradient>
<path class="st33" d="M102.1,245.4l0,59.4l-60.8-29.2c-15.7,13.8-27.7,31.2-34.4,50.7l65,31.1L8,401.8c7.2,19,19.3,35.8,35.1,49.2
	l58.9-40.9v69.5c9.6,2,19.5,3.1,29.8,3.1c10.2,0,20.2-1.1,29.8-3.1v-69.5l58.9,40.9c15.8-13.3,28-30.2,35.1-49.2l-63.9-44.3l65-31.1
	c-6.7-19.5-18.7-36.9-34.4-50.7l-60.8,29.2v-59.4h0c-8-1.7-18.1-3.1-29.8-3.1C120.2,242.3,110.1,243.8,102.1,245.4L102.1,245.4z"/>
<linearGradient id="SVGID_35_" gradientUnits="userSpaceOnUse" x1="82.2925" y1="345.2624" x2="194.1022" y2="489.3149" gradientTransform="matrix(1.0039 0 0 1.0039 -0.4392 -48.0993)">
	<stop  offset="0" style="stop-color:#FF7044"/>
	<stop  offset="1" style="stop-color:#F82814"/>
</linearGradient>
<ellipse class="st34" cx="131.8" cy="362.5" rx="95" ry="87.2"/>
<linearGradient id="SVGID_36_" gradientUnits="userSpaceOnUse" x1="168.3323" y1="446.586" x2="15.139" y2="289.1375" gradientTransform="matrix(1.0039 0 0 1.0039 -0.4392 -48.0993)">
	<stop  offset="0" style="stop-color:#FF7044;stop-opacity:0"/>
	<stop  offset="1" style="stop-color:#FFA325"/>
</linearGradient>
<path class="st35" d="M212.2,280.5l-50.6,24.3v-49.2c-9.5-2.2-19.5-3.4-29.8-3.4s-20.2,1.2-29.8,3.4v49.2l-50.6-24.3
	c-16.2,13.4-28.4,30.8-34.8,50.5l55.2,26.5l-54.7,38c6.6,19.3,18.8,36.3,34.8,49.4l50.2-34.8v59.3c9.5,2.2,19.5,3.4,29.8,3.4
	c10.3,0,20.2-1.2,29.8-3.4v-59.3l50.2,34.8c16-13.1,28.2-30.1,34.8-49.4l-54.7-38L247,331C240.6,311.3,228.4,293.9,212.2,280.5
	L212.2,280.5z"/>
<linearGradient id="SVGID_37_" gradientUnits="userSpaceOnUse" x1="87.448" y1="359.2986" x2="186.0469" y2="469.8817" gradientTransform="matrix(1.0039 0 0 1.0039 -0.4392 -48.0993)">
	<stop  offset="0" style="stop-color:#E4F2FF"/>
	<stop  offset="1" style="stop-color:#B2CBFF"/>
</linearGradient>
<ellipse class="st36" cx="131.8" cy="362.5" rx="84.4" ry="77.4"/>
<linearGradient id="SVGID_38_" gradientUnits="userSpaceOnUse" x1="12.3605" y1="467.8433" x2="42.3808" y2="514.7511" gradientTransform="matrix(1.0039 0 0 1.0039 -0.4392 -48.0993)">
	<stop  offset="0" style="stop-color:#FF7044"/>
	<stop  offset="1" style="stop-color:#F82814"/>
</linearGradient>
<path class="st37" d="M8,430.2c7.2,19,19.3,35.8,35.1,49.2v-28.4L8,401.8V430.2z"/>
<linearGradient id="SVGID_39_" gradientUnits="userSpaceOnUse" x1="93.2372" y1="383.4168" x2="142.0846" y2="490.5656" gradientTransform="matrix(1.0039 0 0 1.0039 -0.4392 -48.0993)">
	<stop  offset="0" style="stop-color:#FF7044"/>
	<stop  offset="1" style="stop-color:#F82814"/>
</linearGradient>
<path class="st38" d="M84.5,336.2c0-2.8,1.1-4.8,3.2-6.1l14.7-9.2c0.8-0.5,1.9-0.8,3.2-0.8c1.9,0,3.7,0.5,5.3,1.6
	c1.6,1.1,2.4,2.4,2.4,4v72.9c0,1.8-0.9,3.1-2.6,4.1c-1.7,1-3.8,1.4-6.1,1.4c-2.4,0-4.4-0.5-6.1-1.4c-1.7-1-2.6-2.3-2.6-4.1v-58.3
	l-3.2,2.1c-0.9,0.6-1.8,0.9-2.8,0.9c-1.6,0-2.9-0.7-3.9-2.2C85.1,339.7,84.5,338,84.5,336.2L84.5,336.2z"/>
<linearGradient id="SVGID_40_" gradientUnits="userSpaceOnUse" x1="131.6921" y1="365.5132" x2="180.4086" y2="472.3759" gradientTransform="matrix(1.0039 0 0 1.0039 -0.4392 -48.0993)">
	<stop  offset="0" style="stop-color:#FF7044"/>
	<stop  offset="1" style="stop-color:#F82814"/>
</linearGradient>
<path class="st39" d="M124.3,377.8v-30.4c0-9.3,2.5-16.2,7.5-20.5c5-4.4,11.6-6.5,19.9-6.5c8.3,0,15,2.2,20,6.5
	c5,4.4,7.5,11.2,7.5,20.5v30.4c0,9.3-2.5,16.2-7.5,20.5c-5,4.4-11.7,6.5-20,6.5c-8.3,0-14.9-2.2-19.9-6.5
	C126.8,394,124.3,387.1,124.3,377.8z M141.7,377.8c0,7.6,3.3,11.5,9.9,11.5c6.7,0,10.1-3.8,10.1-11.5v-30.4
	c0-7.6-3.4-11.5-10.1-11.5c-6.6,0-9.9,3.8-9.9,11.5V377.8z"/>
<linearGradient id="SVGID_41_" gradientUnits="userSpaceOnUse" x1="131.4244" y1="408.5053" x2="22.391" y2="249.9109" gradientTransform="matrix(1.0039 0 0 1.0039 -0.4392 -48.0993)">
	<stop  offset="0" style="stop-color:#FFFFFF;stop-opacity:0"/>
	<stop  offset="1" style="stop-color:#FFFFFF"/>
</linearGradient>
<ellipse class="st40" cx="131.8" cy="362.5" rx="120.2" ry="110.3"/>
</svg>
