<?xml version="1.0" encoding="utf-8"?>
<!-- Generator: Adobe Illustrator 24.0.1, SVG Export Plug-In . SVG Version: 6.00 Build 0)  -->
<svg version="1.1" id="Capa_1" xmlns="http://www.w3.org/2000/svg" xmlns:xlink="http://www.w3.org/1999/xlink" x="0px" y="0px"
	 viewBox="0 0 1451.3 1451.3" style="enable-background:new 0 0 1451.3 1451.3;" xml:space="preserve">
<style type="text/css">
	.st0{fill:#94E061;}
	.st1{fill:#E9EFF4;}
	.st2{fill:#70CF3D;}
	.st3{fill:#D3DCE2;}
</style>
<circle class="st0" cx="725.6" cy="725.6" r="725.6"/>
<path class="st1" d="M520.3,1421.5c-45.8-13.5-90.2-31.5-132.6-53.7c49.5-143.3,56.7-318.9-38.8-472.1
	C266.7,763.9,132.5,686.2,3.7,652.1c4.6-44.7,13.3-88.9,26.1-131.9c178,26.1,352.4,147.2,455.5,337
	C588,1046.5,594.8,1258.2,520.3,1421.5z"/>
<path class="st2" d="M1071.8,1363.3C748.1,1539,349.7,1443,139,1152.7c222,197.5,552.5,245.4,828.7,95.5
	c352.2-191.2,482.7-631.7,291.5-983.9c-15.4-28.4-32.5-55.4-51-80.9c61.1,54.3,113.9,120,155.2,196
	C1554.5,731.6,1424,1172.1,1071.8,1363.3z"/>
<path class="st3" d="M551.6,1332.8c-7.9,30.8-18.3,60.5-31.2,88.7c-2.9-0.8-5.7-1.7-8.6-2.6c-23.8-7.4-47.2-15.9-70.2-25.6
	c-3.9-1.7-54.3-24.3-53.9-25.5c7.2-20.8,13.5-42.3,18.7-64.3C453.6,1318.2,502.2,1328,551.6,1332.8z"/>
<path class="st1" d="M1448,794.7c-4.2,43.9-12.4,87.2-24.5,129.5c-173.9-29.5-343.2-149.5-444-335.2
	C878.3,402.7,870.1,194.8,940.7,32.6c42.7,13.3,84.1,30.4,123.8,51.3c-41.6,125.4-50.1,278.4,13.7,418.2
	C1152.7,665.4,1301.9,756.4,1448,794.7z"/>
<g>
	<path class="st3" d="M1447.9,794.7c-1.6,17-3.8,33.2-6.5,50c-1,6.3-16.7,79.7-17.9,79.4c-44-7.5-87.8-20.7-130.2-39.4
		c17.3-42.6,30.6-86.7,39.7-131.8C1370.5,770.8,1409.4,784.5,1447.9,794.7z"/>
	<path class="st3" d="M1447.9,794.7c-0.5,5.5-1.1,11-1.8,16.4c-0.3,2.7-0.7,5.5-1,8.2c-0.4,2.7-0.7,5.5-1.1,8.2
		c-0.3,2.3-0.7,4.7-1,7c-0.5,3.4-1.1,6.8-1.6,10.2c-0.6,3.4-1.2,6.7-1.8,10.1c-0.2,1-0.4,1.9-0.5,2.9c-0.6,3.5-1.3,7-2,10.4
		c0,0,0,0.1,0,0.1c-0.7,3.7-1.5,7.3-2.3,11c-0.5,2.3-1,4.6-1.5,6.8c-0.5,2.1-0.9,4.1-1.4,6.2c-0.6,2.7-1.3,5.4-2,8
		c-0.7,2.7-1.3,5.3-2,8c-1.4,5.3-2.8,10.6-4.3,15.9c-44-7.5-87.8-20.7-130.2-39.4c17.3-42.6,30.6-86.7,39.7-131.8
		C1370.5,770.8,1409.4,784.5,1447.9,794.7z"/>
</g>
</svg>
