<?xml version="1.0" encoding="utf-8"?>
<!-- Generator: Adobe Illustrator 24.0.1, SVG Export Plug-In . SVG Version: 6.00 Build 0)  -->
<svg version="1.1" id="Layer_1" xmlns="http://www.w3.org/2000/svg" xmlns:xlink="http://www.w3.org/1999/xlink" x="0px" y="0px"
	 viewBox="0 0 1451.3 1451.3" style="enable-background:new 0 0 1451.3 1451.3;" xml:space="preserve">
<style type="text/css">
	.st0{fill:#07485E;}
	.st1{fill:#03232E;}
	.st2{fill:#FF8859;}
	.st3{fill:#FF3939;}
	.st4{fill:#FFF5F5;}
	.st5{fill:#EFE2DD;}
</style>
<path class="st0" d="M997.8,42.5v1196.2c0,23.8-19.9,42.5-45.4,42.5H589.6c-25.4,0-45.4-18.7-45.4-42.5L0,42.5C0,18.7,19.9,0,45.4,0
	h907.1C977.8,0,997.8,18.7,997.8,42.5z"/>
<path class="st1" d="M997.8,42.5v1196.2c0,23.8-19.9,42.5-45.4,42.5H589.6c-25.4,0-45.4-18.7-45.4-42.5L408.2,941.1V0h544.3
	C977.8,0,997.8,18.7,997.8,42.5z"/>
<path class="st2" d="M609.6,259.4L65.3,4.3c-13.6-6-30.8-6-43.5,1.7C8.2,14.5,0,28.1,0,42.5v1196.2c0,18.7,12.7,34.9,30.8,40
	l377.4,118.2l166.9,51.9c13.4,5,30.5,2.2,40.8-5.1c11.8-8.5,19.1-21.3,19.1-34.9V297.7C635,281.5,625,267,609.6,259.4z"/>
<path class="st3" d="M635,297.7v1111.2c0,13.6-7.3,26.4-19.1,34.9c-10.3,7.2-27.3,10.2-40.8,5.1l-166.9-51.9V165l201.4,94.4
	C625,267,635,281.5,635,297.7z"/>
<path class="st3" d="M1112.5,936.1c-14.8-7.4-24-21.8-24-37.5v-42.5H771c-25.1,0-45.4-19-45.4-42.5V643.5
	c0-23.5,20.3-42.5,45.4-42.5h317.5v-42.5c0-15.7,9.2-30.1,24-37.5c14.7-7.3,32.6-6.5,46.5,2.1l272.1,170.1
	c12.6,7.9,20.2,21.2,20.2,35.4c0,14.2-7.6,27.5-20.2,35.4L1159,934C1144.9,942.8,1127,943.4,1112.5,936.1z"/>
<path class="st4" d="M453.5,643.5v170.1c0,23.8-19.9,42.5-45.4,42.5c-25.4,0-45.4-18.7-45.4-42.5V643.5c0-23.8,19.9-42.5,45.4-42.5
	C433.6,601,453.5,619.7,453.5,643.5z"/>
<path class="st5" d="M453.5,643.5v170.1c0,23.8-19.9,42.5-45.4,42.5V601C433.6,601,453.5,619.7,453.5,643.5z"/>
</svg>
