<?xml version="1.0" encoding="utf-8"?>
<!-- Generator: Adobe Illustrator 24.0.1, SVG Export Plug-In . SVG Version: 6.00 Build 0)  -->
<svg version="1.1" id="Layer_1" xmlns="http://www.w3.org/2000/svg" xmlns:xlink="http://www.w3.org/1999/xlink" x="0px" y="0px"
	 viewBox="0 0 1451.3 1451.3" style="enable-background:new 0 0 1451.3 1451.3;" xml:space="preserve">
<style type="text/css">
	.st0{fill:#3A4DE3;}
	.st1{fill:#1C2EDE;}
	.st2{fill:#FEC000;}
	.st3{fill:#FFDF47;}
</style>
<circle class="st0" cx="725.7" cy="725.7" r="725.7"/>
<path class="st1" d="M92.3,523.2L530,459.7L725.7,63.1l424.5,429.8l208.9,30.4l82.4,82.4c6.5,39.1,9.9,79.2,9.9,120.1
	c0,400.8-324.9,725.7-725.7,725.7c-89.2,0-174.5-16.1-253.5-45.5l-138-138l73.6-429.2L92.3,523.2z"/>
<g>
	<polygon class="st2" points="725.7,63.1 921.4,459.7 1359,523.2 1042.3,831.9 1117.1,1267.8 725.7,1062 334.2,1267.8 409,831.9 
		92.3,523.2 529.9,459.7 	"/>
	<polygon class="st2" points="1359,523.2 921.4,459.7 725.7,63.1 725.7,63.1 725.7,1062 725.7,1062 1117.1,1267.8 1042.3,831.9 	"/>
</g>
<polygon class="st3" points="227,523.2 571.6,459.7 725.7,63.1 725.7,63.1 725.7,1062 725.7,1062 417.5,1267.8 476.3,831.9 "/>
</svg>
