<?xml version="1.0" encoding="utf-8"?>
<!-- Generator: Adobe Illustrator 24.0.1, SVG Export Plug-In . SVG Version: 6.00 Build 0)  -->
<svg version="1.1" id="Capa_1" xmlns="http://www.w3.org/2000/svg" xmlns:xlink="http://www.w3.org/1999/xlink" x="0px" y="0px"
	 viewBox="0 0 1692.1 1451.3" style="enable-background:new 0 0 1692.1 1451.3;" xml:space="preserve">
<style type="text/css">
	.st0{fill:none;}
	.st1{fill:#FE0002;}
</style>
<path class="st0" d="M319.3,468.9v884.5h327.2v-525c0-27,21.9-49,49-49h301.1c27,0,49,21.9,49,49v525h327.2V468.9L846.1,108.4
	L319.3,468.9z"/>
<rect x="744.5" y="877.4" class="st1" width="203.2" height="476"/>
<polygon class="st1" points="1232.3,254.1 1372.8,350.3 1372.8,115.7 1232.3,115.7 "/>
<path d="M1670.8,554.2l-200.1-137V66.8c0-27-21.9-49-49-49h-238.4c-27,0-49,21.9-49,49v120.3c0,0-257-176.1-260.3-178.4
	c-16.2-11.3-38.4-11.8-55.6,0L21.3,554.2c-22.3,15.3-28,45.7-12.7,68c9.5,13.9,24.8,21.3,40.4,21.3c9.5,0,19.2-2.8,27.6-8.6
	l144.8-99.1v866.5c0,27,21.9,49,49,49h1151.4c27,0,49-21.9,49-49V535.9l144.8,99.1c8.5,5.8,18.1,8.6,27.6,8.6
	c15.6,0,31-7.5,40.4-21.3C1698.8,600,1693.1,569.5,1670.8,554.2z M947.7,1353.4H744.5v-476h203.2V1353.4z M1372.8,1353.4h-327.2
	v-525c0-27-21.9-49-49-49H695.5c-27,0-49,21.9-49,49v525H319.3V468.9l526.7-360.5l526.7,360.5L1372.8,1353.4L1372.8,1353.4z
	 M1372.8,350.3l-140.5-96.2V115.7h140.5V350.3z"/>
</svg>
