<?xml version="1.0" encoding="utf-8"?>
<!-- Generator: Adobe Illustrator 24.0.1, SVG Export Plug-In . SVG Version: 6.00 Build 0)  -->
<svg version="1.1" id="Capa_1" xmlns="http://www.w3.org/2000/svg" xmlns:xlink="http://www.w3.org/1999/xlink" x="0px" y="0px"
	 viewBox="0 0 1451.3 1451.3" style="enable-background:new 0 0 1451.3 1451.3;" xml:space="preserve">
<style type="text/css">
	.st0{fill:#28ABFA;}
	.st1{fill:#14CFFF;}
	.st2{fill:#373E9F;}
	.st3{fill:#6241EA;}
</style>
<g>
	<path class="st0" d="M725.7,0L271,725.7l454.7,725.7c400.8,0,725.7-324.9,725.7-725.7S1126.4,0,725.7,0z"/>
	<path class="st1" d="M0,725.7c0,400.8,324.9,725.7,725.7,725.7V0C324.9,0,0,324.9,0,725.7z"/>
	<path class="st2" d="M725.7,170.1L539.2,467.7l186.5,297.6c164.4,0,297.6-133.3,297.6-297.6S890.1,170.1,725.7,170.1z"/>
	<path class="st3" d="M428,467.7c0,164.4,133.3,297.6,297.6,297.6V170.1C561.3,170.1,428,303.3,428,467.7z"/>
	<path class="st2" d="M1203.7,950.9C1147.2,887,1066,850.4,980.8,850.4H725.7l-170.1,215.4l170.1,215.4
		c199.3,0,384.5-107.7,483.2-281.2l15-26.4L1203.7,950.9z"/>
	<path class="st3" d="M470.6,850.4c-85.2,0-166.4,36.6-222.9,100.5l-20.2,22.8l15,26.4c98.7,173.4,283.8,281.2,483.2,281.2V850.4
		H470.6z"/>
</g>
</svg>
